<svg width="305" height="203" viewBox="0 0 305 203" fill="none" xmlns="http://www.w3.org/2000/svg">
<path d="M209.372 8.60075C208.465 8.02951 207.722 7.37527 206.815 6.80403C206.361 6.51842 206.072 6.14983 205.742 5.90475L205.619 5.86423C205.495 5.8237 205.412 5.65967 205.329 5.49564C205.123 5.29109 204.916 5.08651 204.874 4.79898C204.501 4.26636 204.212 3.89776 203.799 3.48864C203.097 2.71094 202.477 2.09727 201.777 1.73059C201.2 1.40444 200.582 1.2018 199.924 1.12265C199.266 1.0435 198.568 1.08787 197.788 1.37923C197.46 1.54517 197.132 1.71109 196.804 1.87703C196.599 2.0835 196.395 2.28999 196.19 2.49646C195.904 2.94993 195.619 3.40342 195.54 4.06145C195.461 4.71948 195.464 5.54154 195.634 6.69166C195.719 7.26673 195.968 7.7588 196.053 8.33386L196.344 9.1135L196.387 9.40101L196.346 9.5245C196.307 10.059 196.309 10.4701 196.188 10.8406C195.867 12.6506 195.219 14.6267 194.53 16.7262C193.841 18.8257 193.028 20.8846 192.505 23.3122L192.225 24.9988L191.946 26.6854L191.426 29.935C190.789 34.3772 190.316 38.7364 190.173 43.3407C190.03 47.9451 190.463 52.4645 191.182 56.9415C191.562 59.1182 191.902 61.4185 192.446 63.5122C192.78 64.5794 192.949 65.7295 193.283 66.7966L193.534 67.6998C193.868 68.7669 194.161 69.9576 194.618 71.0653C194.618 71.0653 194.701 71.2293 194.827 71.6809C194.993 72.0089 195.201 72.6245 195.533 73.2806C195.865 73.9367 196.156 74.7164 196.571 75.5365C196.986 76.3567 197.401 77.1768 197.939 78.0375C199.846 81.3992 201.914 84.2668 201.872 83.9793C203.485 86.1503 204.849 87.8292 205.632 88.3599C204.77 88.4872 204.114 88.8191 203.705 89.232C203.541 89.315 203.5 89.4385 203.5 89.4385C203.095 90.6736 202.608 92.1556 201.999 93.597C201.755 94.338 201.512 95.079 201.229 95.9435L201.026 96.561L200.947 97.2191C200.949 97.6301 200.787 98.1241 200.788 98.5351C200.51 100.633 200.48 102.811 200.736 104.948C200.782 106.057 200.993 107.084 201.203 108.11C201.288 108.686 201.413 109.137 201.498 109.712L201.834 111.19C202.17 112.668 202.669 114.064 203.046 115.418C203.046 115.418 204.46 119.029 206.366 122.391C208.149 125.712 210.301 128.743 210.258 128.456C212.161 130.995 214.224 132.63 214.922 132.586C215.046 132.626 215.252 132.831 215.376 132.871C215.746 132.993 216.321 132.908 216.813 132.659C217.305 132.41 217.591 131.957 217.96 131.667C218.164 131.461 218.164 131.461 218.245 131.214C218.405 130.309 218.402 129.487 218.481 128.829C218.438 128.541 218.56 128.171 218.6 128.047C218.682 127.8 218.803 127.43 218.884 127.183C219.289 125.948 219.735 124.589 220.305 123.271C220.874 121.953 221.607 120.552 222.217 119.111C222.786 117.793 223.479 116.515 224.296 115.278L224.377 115.031L224.915 115.892C225.204 116.261 225.37 116.589 225.66 116.957L225.949 117.326C226.032 117.49 226.156 117.53 226.362 117.735C226.692 117.98 226.858 118.308 227.188 118.553L228.055 119.248C228.384 119.493 228.51 119.945 229.002 119.696L230.069 119.362L231.096 119.152L231.547 119.026L231.835 118.984L232.286 118.858L233.313 118.648L235.366 118.228C235.366 118.228 236.269 117.977 237.748 117.641C239.102 117.265 241.073 116.68 243 115.808C246.569 114.106 249.6 111.955 249.313 111.997C251.729 110.054 253.406 108.279 253.649 107.538C254.184 107.576 254.635 107.451 255.249 106.831C256.026 106.129 256.679 104.975 256.679 104.975C256.679 104.975 256.712 103.207 256.704 101.563C256.662 101.276 256.619 100.988 256.617 100.577C257.071 100.863 257.401 101.108 257.771 101.23C258.678 101.801 259.419 102.044 259.419 102.044C262.424 102.893 265.305 103.702 267.941 104.84C270.577 105.979 272.967 107.448 275.113 109.246L276.132 107.392L276.256 107.432C276.215 107.556 276.175 107.679 276.134 107.803C276.013 108.173 275.767 108.503 275.769 108.914C275.852 109.078 275.771 109.325 276.389 109.528C276.636 109.609 277.13 109.771 277.745 109.563C278.033 109.52 278.401 109.231 278.606 109.025C278.77 108.942 278.811 108.818 278.975 108.735C279.015 108.612 279.179 108.529 279.179 108.529C279.384 108.322 279.424 108.199 279.465 108.075C279.505 107.952 279.546 107.828 279.546 107.828C279.586 107.705 279.627 107.581 279.667 107.458L279.708 107.334L279.866 106.018L278.917 105.159C278.998 104.912 278.998 104.912 278.915 104.748C278.373 103.066 277.833 101.794 277.209 100.358C276.877 99.702 276.71 98.9629 276.461 98.4708L275.753 96.46C274.543 92.643 273.209 88.7854 271.261 85.1362C271.506 84.8062 271.546 84.6827 271.095 84.8081C271.095 84.8081 271.095 84.8081 271.012 84.6441C270.348 83.3319 269.561 81.9791 268.733 80.7498C268.733 80.7498 268.194 79.8891 267.203 78.7428C266.211 77.5966 264.806 76.0411 263.28 74.8562C261.794 73.5478 259.939 72.5288 258.621 71.9595C257.344 71.2667 256.439 71.1065 256.563 71.147C254.957 70.6201 253.641 70.4618 252.572 70.3846C252.325 70.3035 252.161 70.3865 251.914 70.3054C252.323 69.8925 252.485 69.3985 252.607 69.028C252.688 68.781 252.688 68.781 252.605 68.617C252.267 66.7278 251.765 64.9215 251.304 62.9918C251.549 62.6618 251.63 62.4148 251.179 62.5402C250.928 61.6371 250.718 60.6105 250.467 59.7074C247.961 51.0872 244.428 42.6773 239.542 35.0547C239.004 34.194 238.548 33.4973 237.969 32.7601C235.901 29.8925 233.709 26.9843 231.272 24.4061C229.743 22.8101 228.132 21.0502 226.563 19.5777C224.911 17.9412 223.055 16.5113 221.322 15.1218C219.425 13.8153 217.529 12.5088 215.551 11.4493C214.52 10.8375 213.573 10.3898 212.542 9.77799C211.022 9.82617 210.238 9.29549 209.372 8.60075ZM201.66 12.0893C201.74 11.4313 201.819 10.7733 201.857 10.2388L201.938 9.99174L201.979 9.86825L202.185 10.0728C202.722 10.5224 203.135 10.9316 203.588 11.2172C204.372 11.7479 205.032 12.2381 205.815 12.7688C205.447 13.0582 204.914 13.4306 204.545 13.7201C203.972 14.216 203.563 14.6289 203.563 14.6289L202.664 15.7018C201.641 16.7342 200.701 17.9306 199.802 19.0035C200.408 16.7399 201.261 14.5574 201.66 12.0893ZM196.653 57.7792C196.232 55.726 196.099 53.6303 195.843 51.4941C196.252 51.0811 196.661 50.6682 197.193 50.2958C200.262 47.1987 203.166 44.1846 206.111 41.047C205.993 42.2395 206.246 43.5537 206.786 44.8254C207.078 45.605 207.574 46.1782 207.906 46.8343C207.741 46.9173 207.577 47.0002 207.373 47.2067C206.103 48.158 204.384 49.6457 204.384 49.6457L203.401 50.5546C201.52 52.5363 199.638 54.5181 197.963 56.7044C197.473 57.3643 197.147 57.9413 196.657 58.6013C196.778 58.2308 196.736 57.9433 196.653 57.7792ZM211.266 35.7617C211.47 35.5552 211.715 35.2252 211.92 35.0188C211.962 35.3063 212.169 35.5108 212.252 35.6749C212.541 36.0435 212.871 36.2886 213.201 36.5337C213.531 36.7788 213.778 36.8598 213.985 37.0643C214.067 37.2284 214.108 37.1049 214.232 37.1454C214.971 36.9776 215.588 37.1802 216.372 37.7109C217.032 38.2011 217.693 39.1023 217.944 40.0054C218.153 40.621 218.237 41.1961 218.158 41.8541C218.118 41.9776 218.077 42.1011 218.037 42.2246C217.996 42.3481 217.956 42.4716 217.915 42.5951C217.875 42.7186 217.834 42.8421 217.794 42.9656C217.753 43.0891 217.589 43.1721 217.549 43.2956C217.508 43.4191 217.303 43.6256 217.099 43.832C216.894 44.0385 216.73 44.1215 216.649 44.3685C216.445 44.5749 216.281 44.6579 216.117 44.7409C215.953 44.8238 215.789 44.9068 215.625 44.9898C215.625 44.9898 215.46 45.0728 215.296 45.1557C215.132 45.2387 214.804 45.4047 214.393 45.4066C213.654 45.5744 212.419 45.1691 211.346 44.2698C210.273 43.3705 209.569 42.1818 209.318 41.2787C209.067 40.3756 209.23 39.8815 209.189 40.0051C209.226 39.0595 209.797 38.1525 210.411 37.5331C211.024 36.9137 211.721 36.4583 211.843 36.0878C212.171 35.9219 211.964 35.7173 211.266 35.7617ZM212.844 127.663C212.761 127.499 212.678 127.335 212.719 127.211C212.759 127.088 212.964 126.881 213.332 126.592C213.537 126.385 213.577 126.262 213.782 126.055C213.741 126.179 213.741 126.179 213.701 126.302C213.579 126.673 213.458 127.043 213.296 127.537C213.174 127.908 213.217 128.196 213.176 128.319C213.093 128.155 213.051 127.867 212.844 127.663ZM252.047 107.833C251.144 108.084 249.668 108.83 247.576 109.785C246.304 110.326 244.869 110.949 243.473 111.449C242.858 111.657 242.242 111.865 241.667 111.95L241.708 111.827C244.57 108.525 247.638 105.428 250.913 102.536C251.002 103.933 250.884 105.125 250.884 105.125C250.884 105.125 251.133 105.617 251.382 106.11C251.631 106.602 251.879 107.094 251.879 107.094C252.086 107.298 252.292 107.503 252.499 107.707C252.335 107.79 252.211 107.75 252.047 107.833ZM269.217 96.3671C269.508 97.1467 269.716 97.7623 270.008 98.5419L270.799 100.717L270.882 100.881C270.511 100.759 270.181 100.514 269.811 100.393C268.616 99.8637 267.258 99.4179 266.023 99.0126C266.187 98.9297 266.351 98.8467 266.515 98.7637L267.416 98.1018C267.416 98.1018 268.194 97.3994 268.971 96.6971C269.012 96.5736 269.176 96.4906 269.217 96.3671ZM268.883 95.3C267.653 96.1278 266.629 96.7491 266.629 96.7491L265.563 97.4939C265.071 97.7428 264.662 98.1558 264.17 98.4047C263.059 98.0399 261.824 97.6346 260.672 97.3934C260.672 97.3934 259.356 97.2351 257.916 97.0362C257.669 96.9552 257.505 97.0381 257.258 96.9571C258.773 95.6758 260.247 94.518 261.762 93.2368L266.471 89.31C267.426 91.4018 268.175 93.2892 268.883 95.3ZM263.611 84.2675C264.356 85.3327 264.937 86.4809 265.518 87.6292C265.601 87.7932 265.643 88.0807 265.849 88.2853L261.181 92.0886C259.134 93.7422 257.086 95.3959 255.162 97.0901C253.518 97.0978 252.164 97.474 252.908 98.5393C251.882 98.7496 251.102 99.0409 250.651 99.1663C250.486 99.2493 250.487 99.2493 250.487 99.2493C250.487 99.2493 250.446 99.3728 250.529 99.5368C250.612 99.7009 250.531 99.9479 250.614 100.112C250.697 100.276 250.616 100.523 250.658 100.81C247.015 103.992 243.578 107.379 240.471 111.011C240.021 111.547 239.571 112.083 239.122 112.62C237.931 112.913 236.822 112.959 236.082 113.127C235.22 113.255 234.809 113.257 234.809 113.257L232.345 113.679L231.03 113.932L230.004 114.142L229.88 114.102L229.797 113.937C229.591 113.733 229.425 113.405 229.218 113.2C229.545 112.623 230.035 111.963 230.484 111.427C232.814 108.498 236.009 106.263 238.999 103.824C241.988 101.385 245.101 98.9866 248.049 96.6711C251.162 94.2726 254.111 91.957 257.224 89.5585C258.738 88.2773 260.213 87.1195 261.728 85.8382L263.407 84.474C263.407 84.474 263.447 84.3505 263.611 84.2675ZM250.814 72.4069C250.814 72.4069 250.854 72.2834 250.978 72.3239C251.308 72.569 251.678 72.6906 252.008 72.9357C252.709 73.3023 253.656 73.7501 254.687 74.3618C255.264 74.688 255.841 75.0141 256.377 75.4638C256.913 75.9134 257.573 76.4036 258.11 76.8533C259.183 77.7526 260.175 78.8989 260.919 79.9641C261.705 80.9058 262.326 81.9305 262.658 82.5866C262.741 82.7507 262.947 82.9553 263.03 83.1193C262.826 83.3258 262.662 83.4087 262.662 83.4087L261.351 84.4835C259.837 85.7648 258.322 87.0461 256.847 88.2038C253.858 90.6429 250.745 93.0414 247.592 95.5634C244.479 97.9619 241.367 100.36 238.213 102.882C235.224 105.322 231.864 107.639 229.33 110.775C229.045 111.228 228.636 111.641 228.35 112.095C227.978 111.562 227.646 110.906 227.233 110.497C226.365 109.391 225.579 108.449 224.711 107.343C228.026 104.327 231.465 101.352 234.904 98.3764C238.671 95.235 242.438 92.0936 246.164 89.0756C248.048 87.5049 250.014 86.0982 251.898 84.5275L253.864 83.1208C253.864 83.1208 256.934 80.4348 256.77 80.5178C257.957 79.4024 258.652 78.536 256.315 79.8211C254.962 80.6084 253.077 81.7681 253.077 81.7681L251.643 82.8023C249.636 84.3325 247.753 85.9032 245.746 87.4334C241.855 90.5343 237.965 93.6352 234.157 96.9001C226.542 103.43 219.174 110.041 212.055 117.144L210.378 118.919L210.338 119.043C210.301 119.988 210.959 120.067 211.247 120.025C211.247 120.025 211.247 120.025 211.411 119.942L213.088 118.167C215.747 115.483 218.489 112.963 221.231 110.442L220.62 111.473L220.008 112.503L219.682 113.08C218.825 114.441 218.051 115.965 217.401 117.53C216.831 118.848 216.098 120.249 215.448 121.814C215.367 122.061 215.245 122.432 215.164 122.679C214.755 123.091 214.305 123.628 213.732 124.124C213.159 124.62 212.669 125.28 212.259 125.693C212.259 125.693 212.219 125.816 212.095 125.776C211.264 123.724 210.39 121.385 209.805 119.415C209.012 116.829 208.51 115.023 208.51 115.023C208.26 114.12 207.885 113.176 207.635 112.273C207.635 112.273 207.758 112.314 207.799 112.19C207.799 112.19 207.799 112.19 207.963 112.107L209.723 110.496C216.639 104.01 223.472 97.3609 230.389 90.8754C233.785 87.6124 237.305 84.3899 240.785 81.2909C242.545 79.6796 244.264 78.1919 246.147 76.6212L248.031 75.0505C248.031 75.0505 248.809 74.3481 249.463 73.6052C250.2 73.0263 250.937 72.4474 250.814 72.4069ZM246.898 70.1644C246.981 70.3284 247.188 70.533 247.188 70.533C248.384 71.4728 249.289 71.633 250.028 71.4651C250.152 71.5057 250.235 71.6697 250.358 71.7102C249.006 72.4975 247.203 73.8212 247.203 73.8212L245.893 74.896C244.009 76.4667 242.249 78.078 240.366 79.6487C236.722 82.8306 233.162 86.1766 229.642 89.3991C222.562 95.9676 215.688 102.741 208.607 109.309L207.216 110.631C207.133 110.467 207.173 110.343 207.09 110.179L206.714 108.825C206.589 108.373 206.587 107.962 206.461 107.511C206.334 106.648 206.207 105.785 206.12 104.799C206.076 104.101 206.072 103.279 206.027 102.58C206.151 102.621 206.315 102.538 206.315 102.538C206.315 102.538 206.315 102.538 206.356 102.414C206.846 101.754 207.295 101.218 207.786 100.558C210.728 97.0091 214.414 94.1147 218.141 91.0968C219.984 89.6496 221.827 88.2024 223.587 86.5911L228.743 81.7168C232.263 78.4943 235.742 75.3954 239.305 72.4604C241.148 71.0132 242.991 69.566 244.834 68.1188L246.104 67.1675C246.397 68.3581 246.648 69.2612 246.898 70.1644ZM244.261 59.8595C244.469 60.4751 244.678 61.0907 244.846 61.8298C245.222 63.1845 245.598 64.5392 245.974 65.8939L244.869 66.7622C242.902 68.1689 241.019 69.7396 239.176 71.1868C235.449 74.2047 231.929 77.4272 228.286 80.6092L223.006 85.4429C221.246 87.0542 219.403 88.5014 217.52 90.0721C213.793 93.09 210.067 96.1079 206.796 99.8225C206.551 100.152 206.346 100.359 206.101 100.689C206.099 100.278 206.221 99.9074 206.219 99.4964C206.217 99.0854 206.298 98.8383 206.379 98.5913L206.5 98.2208L206.663 97.7268C206.865 97.1093 207.068 96.4918 207.311 95.7508C207.757 94.3923 208.326 93.0744 208.853 91.4688C208.894 91.3454 208.851 91.0578 208.768 90.8938C208.602 90.5657 208.56 90.2782 208.353 90.0736C210.725 87.4319 213.674 85.1164 216.622 82.8009C218.261 81.5601 219.652 80.2383 221.167 78.957L225.712 75.1132C228.742 72.5507 231.895 70.0287 234.884 67.5896L241.191 62.5456C241.191 62.5456 244.261 59.8595 244.097 59.9425C244.097 59.9425 244.097 59.9425 244.261 59.8595ZM242.011 53.3756C242.76 55.2629 243.385 57.1096 243.97 59.0799C243.806 59.1629 243.642 59.2459 243.478 59.3288C242.125 60.1161 240.322 61.4398 240.322 61.4398L234.22 66.2774C231.067 68.7994 227.914 71.3214 224.844 74.0074L220.135 77.9342C218.62 79.2155 217.064 80.6203 215.59 81.7781C212.765 84.1341 209.693 86.4091 207.116 89.2573C206.786 89.0122 206.539 88.9312 206.252 88.9736C206.414 88.4796 206.036 86.7139 204.417 83.3098C204.334 83.1457 204.334 83.1457 204.251 82.9817C204.457 83.1863 204.704 83.2673 204.581 83.2268L204.745 83.1438L204.95 82.9374L206.015 82.1925C212.487 77.4765 218.794 72.4325 224.977 67.348L234.313 59.7414L240.66 54.5739C240.865 54.3674 241.397 53.995 242.011 53.3756ZM233.633 37.2196C233.882 37.7116 234.171 38.0802 234.584 38.4894C235.702 40.0872 236.655 41.768 237.484 43.4084C237.32 43.4913 237.156 43.5743 236.952 43.7808C235.599 44.568 233.797 45.8918 233.797 45.8918L232.486 46.9666L228.27 50.6444L220.083 58.0812C214.64 62.9979 209.072 67.8741 203.339 72.4222L201.496 73.8694L201.455 73.9929C201.254 75.0215 201.913 75.1006 202.324 75.0987C202.324 75.0987 202.324 75.0987 202.447 75.1392L204.414 73.7326C210.147 69.1844 215.55 64.3912 220.954 59.598L229.059 52.4082L233.112 48.8133L234.667 47.4085C234.667 47.4085 235.445 46.7062 236.099 45.9633C236.877 45.2609 237.49 44.6414 237.49 44.6414C237.695 44.435 237.735 44.3115 237.899 44.2285C239.35 46.8935 240.514 49.601 241.637 52.4319C240.776 52.9703 240.244 53.3427 240.244 53.3427L238.933 54.4175L234.101 58.3038L224.724 66.0338C218.377 71.2014 212.03 76.3689 205.558 81.0849L204.984 81.5808C204.861 81.5402 204.861 81.5402 204.861 81.5402C204.697 81.6232 204.533 81.7062 204.328 81.9126C203.331 79.5332 202.333 77.1539 201.542 74.979C201.125 73.7478 200.791 72.6807 200.5 71.9011C200.209 71.1215 200.083 70.6699 200.083 70.6699C199.75 69.6027 199.292 68.4951 198.999 67.3044L198.748 66.4013L198.623 65.9497L198.204 64.3075C197.785 62.6653 197.45 61.1871 197.154 59.5855C197.484 59.8305 197.812 59.6646 197.977 59.5816C197.977 59.5816 197.977 59.5816 198.017 59.4581C198.384 58.7576 198.874 58.0977 199.324 57.5613C200.835 55.4579 202.716 53.4762 204.557 51.6179L205.375 50.792C205.375 50.792 208.156 47.7374 207.992 47.8204C208.156 47.7374 208.237 47.4904 208.401 47.4074C208.98 48.1446 209.6 48.7583 210.383 49.289C211.827 50.3099 213.596 50.7538 214.829 50.7481C215.528 50.7037 215.939 50.7018 216.35 50.6999C216.514 50.6169 216.637 50.6574 216.801 50.5745C216.024 51.2769 215.369 52.0198 214.632 52.5987C213.241 53.9205 211.973 55.2828 210.499 56.4406C207.633 58.9201 204.644 61.3592 202.027 64.3309C201.537 64.9908 200.923 65.6102 200.556 66.3107L200.516 66.4342C200.603 67.4203 201.342 67.2524 201.629 67.21C201.629 67.21 201.629 67.21 201.67 67.0865C202.16 66.4265 202.61 65.8901 203.1 65.2302C205.389 62.4244 208.337 60.1089 211.203 57.6293C212.677 56.4715 214.069 55.1497 215.337 53.7874C216.728 52.4656 217.996 51.1032 219.347 49.9049C222.089 47.3848 224.831 44.8647 227.573 42.3446C228.924 41.1463 230.439 39.8651 231.79 38.6668L233.633 37.2196C233.509 37.179 233.633 37.2196 233.633 37.2196ZM226.81 28.4139C229.041 30.7876 230.943 33.3272 232.805 35.9903L231.495 37.0651C229.98 38.3464 228.629 39.5447 227.114 40.8259C225.763 42.0242 224.372 43.3461 223.021 44.5444L223.062 44.4208C223.183 44.0503 223.264 43.8033 223.386 43.4328C223.507 43.0623 223.465 42.7748 223.587 42.4043C223.621 41.0477 223.533 39.6506 223.116 38.4194C222.533 36.8602 221.746 35.5074 220.507 34.28C220.752 33.9501 220.957 33.7436 221.202 33.4136C221.406 33.2071 221.611 33.0007 221.816 32.7942C222.061 32.4642 222.389 32.2983 222.634 31.9683C222.634 31.9683 223.288 31.2254 224.025 30.6465C224.803 29.9441 225.54 29.3652 225.417 29.3247C226.03 28.7053 226.603 28.2094 226.52 28.0453C226.603 28.2094 226.686 28.3734 226.81 28.4139ZM217.563 19.9073C219.213 21.1328 220.822 22.4817 222.391 23.9542C223.877 25.2626 225.199 26.654 226.48 28.1688C226.356 28.1283 225.864 28.3773 225.044 28.7921C224.388 29.124 223.527 29.6624 222.831 30.1177C222.134 30.5731 221.765 30.8625 221.765 30.8625C221.397 31.152 221.028 31.4414 220.783 31.7714C220.579 31.9779 220.374 32.1843 220.17 32.3908C219.924 32.7208 219.72 32.9273 219.475 33.2572C219.145 33.0122 218.815 32.7671 218.444 32.6455L217.744 32.2788C217.497 32.1977 217.25 32.1167 217.003 32.0356C216.509 31.8735 215.974 31.8349 215.44 31.7963C216.053 31.1769 216.708 30.4339 217.445 29.8551L218.836 28.5332C218.836 28.5332 219.49 27.7903 220.268 27.0879C220.922 26.345 221.577 25.6021 221.536 25.7256C222.64 24.4463 223.211 23.5393 221.04 25.1525C219.77 26.1038 217.968 27.4275 217.968 27.4275L216.781 28.5428C215.799 29.4517 214.776 30.484 213.753 31.5164C211.748 33.4576 209.867 35.4394 207.944 37.5446C204.141 41.6316 200.254 45.5546 196.491 49.5181C196.327 49.601 196.246 49.848 196.082 49.931C195.951 48.2463 195.86 46.4382 195.853 44.7941C195.851 44.383 195.889 43.8485 195.887 43.4375C196.132 43.1075 196.337 42.901 196.582 42.5711C198.992 39.3948 201.526 36.2591 204.184 33.164C205.492 31.6781 206.801 30.1923 208.232 28.747L211.546 25.32C211.546 25.32 214.203 22.2248 214.039 22.3077C215.02 20.9879 215.591 20.0809 213.543 21.7346C212.273 22.6859 210.678 24.2142 210.678 24.2142L207.528 27.5582C206.096 29.0035 204.747 30.6129 203.315 32.0582C200.862 34.9469 198.41 37.8356 196.204 40.8053C196.355 37.8452 196.793 34.8425 197.231 31.8399C197.598 31.1394 198.088 30.4795 198.578 29.8195C199.518 28.6231 200.458 27.4267 201.521 26.2709C202.584 25.115 203.607 24.0827 204.794 22.9673L207.577 20.3237C207.577 20.3237 208.231 19.5808 209.009 18.8784C209.663 18.1355 210.317 17.3926 210.276 17.5161C211.38 16.2367 211.828 15.2893 209.781 16.943C208.511 17.8943 206.832 19.2585 206.832 19.2585L204.049 21.9021C202.862 23.0174 201.799 24.1733 200.736 25.3291C199.836 26.402 198.978 27.3514 198.078 28.4243L198.119 28.3008L198.358 26.7377L198.597 25.1747C198.76 24.6807 198.839 24.0227 199.001 23.5286C199.286 23.0752 199.532 22.7452 199.817 22.2917C201.247 20.4354 202.677 18.579 204.19 16.8867L205.008 16.0609C205.008 16.0609 205.663 15.3179 206.317 14.575C206.562 14.245 206.93 13.9556 207.135 13.7491C208.042 14.3204 208.949 14.8916 210.143 15.4204C210.967 15.8276 211.998 16.4394 212.822 16.8466C214.099 17.5394 215.79 18.6413 217.563 19.9073Z" fill="#E13632"/>
<path d="M249.374 116.394C246.499 116.818 242.927 117.698 240.179 118.985C237.472 120.149 235.588 121.719 235.588 121.719C234.237 122.918 232.929 124.404 232.074 126.175L231.993 126.422L231.626 127.122C231.34 127.576 231.178 128.07 231.016 128.564C230.854 129.058 230.816 129.592 230.653 130.086C230.615 130.621 230.453 131.115 230.414 131.65C230.26 133.788 230.557 135.8 231.058 137.607C231.853 140.604 233.181 143.228 234.672 145.769C234.385 145.812 234.508 145.852 234.672 145.769C235.004 146.426 235.5 146.999 235.832 147.655L235.915 147.819C234.888 148.029 245.033 146.297 240.68 147.057L240.72 146.933L240.842 146.563L241.044 145.945L241.326 144.67L241.488 144.176L242.357 145.282C244.589 148.066 246.986 150.768 249.627 153.14C250.866 154.367 252.269 155.512 253.672 156.656L255.075 157.8L257.055 159.271C258.375 160.251 259.818 161.272 261.138 162.252C261.541 160.606 261.945 158.96 262.184 157.397C262.304 156.616 262.587 155.751 262.707 154.97C262.829 154.599 262.827 154.188 262.865 153.654L262.944 152.996C263.141 151.145 263.298 149.418 263.331 147.65C263.396 144.115 263.215 140.499 262.87 136.965C262.785 136.39 262.7 135.815 262.656 135.117L262.905 135.609L263.32 136.429L263.485 136.757L263.568 136.921L263.651 137.085L263.734 137.249L265.147 140.449L266.851 144.428L267.391 145.699L267.599 146.315L267.765 146.643L267.848 146.807L267.885 145.862L268.161 143.353L268.358 141.502L268.516 140.186L268.949 135.951C269.107 134.635 268.976 132.95 268.762 131.101C268.424 129.212 267.88 127.118 267.172 125.107C266.714 124 266.257 122.892 265.636 121.867C264.889 120.391 263.978 118.998 262.78 117.647C261.582 116.296 260.179 115.152 258.12 114.339C257.996 114.299 257.585 114.301 257.421 114.384C256.231 114.677 255.657 115.173 255.495 115.667C255.25 115.997 255.293 116.284 255.295 116.695C255.171 116.655 254.924 116.574 254.513 116.576C253.359 115.923 251.839 115.971 249.374 116.394ZM235.8 131.912C235.757 131.625 235.879 131.254 235.96 131.007C236.041 130.76 236.039 130.349 236.12 130.102C236.201 129.855 236.323 129.485 236.404 129.238L236.526 128.867L236.566 128.744C236.647 128.497 236.811 128.414 236.892 128.167L236.825 131.291L235.555 132.242C235.759 132.036 235.8 131.912 235.8 131.912ZM236.23 136.021C236.062 135.281 235.894 134.542 235.85 133.844L236.423 133.348L236.996 132.852L236.886 135.689C236.89 136.511 236.811 137.169 236.815 137.991C236.606 137.375 236.398 136.76 236.23 136.021ZM257.964 142.743C258.053 144.14 258.101 145.661 258.026 147.141C258.033 148.785 257.918 150.388 257.678 151.951L257.599 152.609L257.063 152.16C255.783 151.056 254.463 150.076 253.348 148.889C253.142 148.684 252.935 148.48 252.729 148.275C253.138 147.862 253.587 147.326 253.997 146.913C254.61 146.293 255.224 145.674 255.838 145.054L256.656 144.229C256.532 144.188 257.146 143.569 257.964 142.743C257.924 142.866 257.924 142.866 257.964 142.743ZM256.77 142.214C256.197 142.71 255.705 142.959 255.705 142.959L254.722 143.868C254.109 144.487 253.371 145.066 252.717 145.809C252.308 146.222 251.858 146.758 251.449 147.171C250.087 145.903 248.889 144.552 247.69 143.202C247.814 143.242 247.978 143.159 248.142 143.076C248.142 143.076 248.142 143.076 248.306 142.993C248.796 142.333 249.286 141.673 249.736 141.137C251.33 139.198 253.007 137.422 254.684 135.647L255.502 134.821C255.502 134.821 256.156 134.078 256.811 133.335C257.063 134.649 257.233 135.8 257.362 137.073C257.451 138.47 257.663 139.908 257.752 141.305C257.466 141.759 257.098 142.048 256.77 142.214ZM255.92 118.542L256.003 118.706C256.086 118.87 256.086 118.87 256.209 118.911C257.074 119.194 257.94 119.889 258.726 120.831C259.511 121.773 260.256 122.838 260.837 123.986L262 126.693L261.794 126.489C261.217 126.163 260.64 125.837 260.063 125.51L259.569 125.348C252.199 131.548 257.521 127.002 255.925 128.53L255.885 128.654L255.968 128.818L256.135 129.557C256.386 130.46 256.514 131.323 256.641 132.185C255.699 132.971 254.757 133.756 254.757 133.756L253.775 134.665C251.975 136.399 250.257 138.298 248.663 140.238C248.173 140.898 247.559 141.517 247.069 142.177L247.029 142.3L246.988 142.424C246.782 142.219 246.616 141.891 246.286 141.646L245.5 140.704C245.004 140.131 244.59 139.311 244.051 138.45L243.264 137.098C243.468 136.891 243.509 136.768 243.714 136.561C245.103 134.828 246.863 133.217 248.623 131.606C250.342 130.118 252.226 128.547 254.069 127.1L254.97 126.438C254.97 126.438 258.04 123.752 257.876 123.835C259.063 122.72 259.675 121.69 257.421 123.139C256.068 123.926 254.266 125.25 254.266 125.25L253.16 126.118C251.317 127.565 249.474 129.012 247.714 130.624C245.954 132.235 244.194 133.846 242.641 135.662L242.6 135.785L241.437 133.078L240.273 130.371L245.966 125.946C247.604 124.705 249.243 123.464 250.881 122.224L253.38 120.445L254.774 119.534C254.691 119.37 255.223 118.997 255.92 118.542ZM255.295 116.695C255.378 116.859 255.42 117.147 255.503 117.311C254.683 117.726 254.15 118.098 254.15 118.098L252.921 118.926L250.422 120.705C248.784 121.946 247.145 123.186 245.507 124.427L239.978 128.769L238.857 126.349L238.691 126.021C238.691 126.021 238.731 125.897 238.855 125.938C238.855 125.938 239.019 125.855 239.264 125.525C239.428 125.442 239.509 125.195 239.673 125.112C239.878 124.906 240.042 124.823 240.246 124.616C241.188 123.831 242.581 122.92 244.098 122.05C247.132 120.309 250.497 119.225 250.21 119.267C252.466 118.229 254.681 117.315 255.295 116.695Z" fill="#E13632"/>
<path d="M132.313 179.081L130.424 179.031L128.55 178.935C127.941 178.907 127.284 178.865 126.675 178.838C126.066 178.81 125.424 178.721 124.829 178.647C119.852 178.086 114.852 177.262 109.936 176.153C107.47 175.623 105.048 174.951 102.639 174.232C100.292 173.479 97.9253 172.618 95.8275 171.374C94.9062 170.842 94.0604 170.229 93.4599 169.484C93.4126 169.47 93.3182 169.442 93.3182 169.442C92.7232 169.367 92.289 169.443 92.0627 169.684C91.8363 169.925 91.7707 170.317 91.8278 170.643C91.8468 170.751 91.8468 170.751 91.8799 170.813C92.7546 171.846 93.7753 172.562 94.8242 173.184C97.1108 174.484 99.5103 175.406 101.905 176.173C104.299 176.939 106.784 177.578 109.235 178.156C114.151 179.264 119.09 180.122 124.114 180.696C125.365 180.813 126.603 180.977 127.915 181.06C129.18 181.129 130.446 181.198 131.678 181.206C132.943 181.276 134.19 181.236 135.483 181.211L137.353 181.152C137.976 181.132 138.599 181.113 139.236 181.046C141.743 180.92 144.292 180.652 146.761 180.309C149.277 179.981 151.741 179.482 154.186 178.874C156.63 178.267 159.056 177.551 161.463 176.727C162.048 176.49 162.666 176.314 163.252 176.078L165.007 175.367C165.592 175.131 166.191 174.847 166.776 174.61C167.362 174.373 167.914 174.075 168.499 173.838C169.636 173.303 170.787 172.721 171.891 172.125C172.443 171.827 172.995 171.529 173.561 171.183C174.113 170.885 174.679 170.54 175.184 170.227C177.373 168.926 179.449 167.489 181.491 165.989C183.533 164.49 185.462 162.854 187.358 161.157L188.768 159.881C189.254 159.46 189.692 159.025 190.131 158.59C191.055 157.734 191.899 156.803 192.79 155.886L195.006 153.462L195.638 152.724C195.638 152.724 195.878 152.436 196.208 152.02C196.373 151.812 196.552 151.557 196.793 151.269C196.972 151.014 197.212 150.725 197.405 150.423C197.825 149.879 198.211 149.275 198.494 148.845C198.443 149.189 198.391 149.534 198.387 149.893C198.326 150.441 198.265 150.988 198.252 151.55C198.252 151.55 198.221 153.033 198.312 154.449C198.39 155.912 198.542 157.295 198.585 157.154C198.747 158.334 199.041 159.245 199.234 159.457C199.362 159.546 199.437 159.466 199.503 159.074C199.555 158.729 199.643 158.087 199.708 157.181C199.83 156.085 199.913 154.773 200.02 153.724C200.128 152.676 200.245 151.94 200.245 151.94C200.272 151.33 200.361 150.688 200.389 150.079C200.505 148.828 200.716 147.605 200.927 146.382L201.007 145.943L201.143 145.315C201.279 144.687 201.463 144.073 201.613 143.397L202.722 139.51L202.849 139.085L202.877 138.991L202.891 138.944L202.905 138.896L202.693 139.09L201.788 140.054L200.835 141.005L200.383 141.487L199.944 141.922C199.657 142.196 199.355 142.517 199.095 142.697C198.822 142.924 198.563 143.104 198.289 143.331C198.152 143.444 198.03 143.51 197.893 143.624L197.695 143.77L197.313 144.016C195.218 145.346 192.911 146.354 190.556 147.348L188.97 148.007C188.433 148.258 187.909 148.461 187.343 148.807C187.281 148.84 187.253 148.934 187.239 148.981C187.079 149.345 186.98 149.676 187.066 149.907C187.151 150.138 187.278 150.228 187.467 150.284C187.642 150.388 187.722 150.463 187.864 150.506C187.911 150.52 188.006 150.548 188.053 150.562C188.1 150.576 188.148 150.59 188.242 150.618C188.336 150.647 188.336 150.647 188.351 150.599C188.78 150.367 189.318 150.117 189.794 149.899L191.333 149.227C193.701 148.185 196.117 147.157 198.349 145.715L198.99 145.289L198.812 146.059C198.741 146.295 198.732 146.498 198.709 146.748C198.496 146.942 198.27 147.183 197.968 147.504C197.591 147.906 197.153 148.341 196.728 148.729C196.29 149.164 195.865 149.551 195.488 149.953C194.748 150.709 194.173 151.258 194.173 151.258L193.541 151.995C193.451 152.123 193.315 152.236 193.225 152.364L192.442 153.262C189.067 156.986 185.37 160.409 181.412 163.497C179.417 165.01 177.389 166.462 175.233 167.824C173.091 169.139 170.916 170.393 168.675 171.524C166.434 172.656 164.141 173.617 161.767 174.503C159.393 175.388 157.015 176.118 154.617 176.74C149.775 177.969 144.809 178.749 139.768 179.095C137.303 179.08 134.824 179.111 132.313 179.081Z" fill="#E13632"/>
<path d="M75.3597 171.436C74.4022 170.319 73.4447 169.202 72.3277 168.244C70.0936 166.329 67.3808 164.893 64.5084 164.095C58.9232 162.34 52.8593 162.34 47.2741 163.935C44.4018 164.733 41.6889 165.85 39.2953 167.446C38.0187 168.244 36.9016 169.201 35.7846 170.159L34.1888 171.755C33.7101 172.233 33.2314 172.872 32.7526 173.51C30.9973 175.904 29.8802 178.936 29.8802 181.968C29.8802 185.159 31.3164 188.191 33.5505 190.266C35.7846 192.34 38.8166 193.617 41.6889 193.936C42.4868 194.095 43.1251 194.095 43.923 194.095H44.0826V194.255C44.4017 195.532 44.7209 196.968 45.04 198.244C45.3592 199.521 45.6784 200.957 46.4762 202.234L46.6358 202.393C47.4337 202.713 47.9124 202.553 48.2316 202.234C48.2316 202.234 48.2316 202.074 48.3912 202.074C48.7103 201.755 49.3486 201.276 49.9869 200.479C50.9444 199.521 51.9018 198.404 52.6997 197.606C53.4976 196.808 54.2955 196.33 54.2955 196.33C54.6147 196.17 54.7742 196.01 55.0934 195.691L55.5721 195.532L55.7317 195.372H55.8913L56.2104 195.212C56.37 195.212 56.5296 195.053 56.6892 195.053C57.8062 194.734 59.2424 194.574 60.6786 194.415C62.1148 194.255 63.5509 193.936 64.9871 193.776C67.8595 193.138 70.5723 192.34 73.2851 190.904C74.5617 190.106 75.8384 189.308 76.9554 188.032C78.0725 186.914 78.8703 185.319 79.1895 183.883C79.5086 182.287 79.5086 180.691 79.1895 179.255C78.8703 177.819 78.3916 176.382 77.7533 174.946C76.9554 173.829 76.1575 172.553 75.3597 171.436ZM76.7958 182.287C76.7958 183.563 76.3171 184.68 75.8384 185.638C75.2001 186.595 74.4022 187.553 73.2851 188.191C71.2106 189.627 68.6574 190.585 66.1042 191.223C63.5509 191.861 60.8381 192.181 58.1253 192.5C57.3274 192.659 56.6892 192.819 55.8913 192.978C55.7317 192.978 55.5721 193.138 55.4125 193.138L55.0934 193.298H54.9338C54.7742 193.457 54.6147 193.457 54.2955 193.617C53.8168 193.776 53.4976 194.095 53.1785 194.255C53.1785 194.255 53.0189 194.255 52.8593 194.415C52.6997 194.574 52.5402 194.734 52.221 195.053C51.7423 195.532 51.104 196.17 50.6252 196.968C49.6678 198.404 48.8699 199.681 48.8699 199.681C48.7103 200 48.5507 200.319 48.3912 200.638C48.072 199.681 47.7528 198.723 47.4337 197.606C47.1145 196.33 46.7954 194.893 46.4762 193.617L46.3167 192.819L45.9975 191.861V191.702H45.8379H45.5188H45.04H44.0826C43.4443 191.702 42.806 191.702 42.1677 191.542C39.6144 191.223 37.2208 190.266 35.3059 188.51C33.391 186.914 32.2739 184.521 32.1143 182.127C31.9548 179.734 32.9122 177.18 34.3484 175.106L35.4654 173.51C35.9442 173.031 36.4229 172.553 36.7421 172.074C37.6995 171.116 38.657 170.319 39.774 169.521C42.0081 168.084 44.4017 166.967 46.955 166.17C52.0614 164.733 57.487 164.414 62.5935 165.85C65.1467 166.489 67.5404 167.606 69.6149 169.042C71.6894 170.478 73.4447 172.553 74.7213 174.787C75.9979 177.34 76.7958 179.893 76.7958 182.287Z" fill="#E13632"/>
<path d="M95.7852 154.84C96.9022 154.042 97.8596 153.085 98.6575 151.808C99.2958 150.531 99.7746 149.255 99.9342 147.819C100.094 146.542 99.9342 145.106 99.7746 143.829C99.2959 141.276 98.3384 138.723 96.7426 136.648C95.9448 135.531 94.9873 134.733 94.0298 133.776C93.0723 132.978 91.9553 132.18 90.8383 131.701C86.2105 129.308 81.1041 128.669 76.1572 129.148C73.604 129.467 71.2103 129.946 68.8167 130.903C66.423 131.861 64.189 132.978 62.274 134.733C60.3591 136.329 58.6038 138.563 57.8059 141.116C57.008 143.67 57.1676 146.542 58.125 149.095C59.0825 151.648 60.8378 153.723 62.9123 155.159C63.3911 155.638 64.0294 155.957 64.5081 156.276C64.9868 156.595 65.6252 156.914 66.2635 157.234C66.5826 157.393 66.9018 157.553 67.2209 157.553L67.6996 157.712L67.0613 158.829C66.7422 159.468 66.423 160.106 66.1039 160.744V160.904C66.2634 161.702 66.7422 162.021 67.2209 162.021C67.5401 162.021 67.6996 162.021 67.8592 161.861C68.338 161.702 68.8167 161.542 69.6146 161.383C70.8912 160.904 72.3274 160.266 73.2848 159.787C74.4019 159.308 75.1998 159.308 75.1998 159.308C75.5189 159.148 75.838 159.148 76.3168 158.989C76.4764 158.989 76.636 158.989 76.7955 158.829H77.1147L78.0721 158.67C82.6999 158.032 87.6467 158.032 92.5936 156.276C93.5511 156.276 94.6681 155.638 95.7852 154.84ZM79.1892 156.436L77.4338 156.595L76.4764 156.755L75.8381 156.914C75.3593 157.074 75.0402 157.074 74.5615 157.234C74.5615 157.234 74.0827 157.393 73.4444 157.712C72.8061 158.031 72.0082 158.351 71.2103 158.829C70.0933 159.468 69.1358 160.266 68.8167 160.425L69.2954 159.627L69.6146 159.149C69.7742 158.829 69.9337 158.51 70.0933 158.351L70.4125 157.553L70.572 157.234L70.7316 157.074H70.572C70.0933 156.914 69.455 156.595 68.9763 156.436L67.8592 155.957C67.5401 155.797 67.3805 155.797 67.0613 155.638C66.1039 155.159 65.1464 154.68 64.189 154.042C62.4336 152.765 60.9974 151.01 60.04 149.095C59.2421 147.18 59.0825 144.946 59.5612 142.872C60.1995 140.797 61.4762 139.042 63.0719 137.606C64.6677 136.01 66.5826 134.893 68.6571 134.095C70.7316 133.297 72.9657 132.659 75.1998 132.34C77.4338 132.02 79.8275 132.02 82.0615 132.34C84.2956 132.659 86.5297 133.137 88.6042 134.095C90.6787 135.052 92.434 136.329 93.8702 137.925C95.3064 139.521 96.2639 141.595 96.7426 143.67C97.2214 145.744 97.3809 148.138 96.583 150.053C95.9447 151.968 94.349 153.404 92.2745 154.202C90.3595 155.159 87.9659 155.638 85.7318 155.957C83.9765 155.957 81.5828 156.117 79.1892 156.436Z" fill="#E13632"/>
<path d="M30.5184 166.489C30.9971 166.01 31.1566 165.372 30.9971 164.893C30.9971 164.734 30.9971 164.734 30.9971 164.734L28.1247 161.861L27.9651 161.702L28.2843 161.223C28.9226 160.425 29.5609 159.627 30.0396 158.829C31.3162 157.233 32.2737 155.159 32.7524 153.085C33.2312 151.01 33.0716 148.616 32.1141 146.701C31.3162 144.627 29.7205 143.031 27.9651 141.755C26.2098 140.478 24.1353 139.68 22.2203 139.201C20.1458 138.723 18.0714 138.563 15.9969 138.723C13.9224 138.882 11.8479 139.361 9.93294 140.318C8.01802 141.276 6.26268 142.393 4.82649 143.989C3.3903 145.425 2.27325 147.34 1.47537 149.255C0.996636 150.212 0.837074 151.17 0.51792 152.287C0.358343 153.244 0.198762 154.361 0.0391849 155.319C-0.120392 157.393 0.198757 159.627 1.15622 161.702C2.11368 163.776 3.70945 165.372 5.62437 166.489C9.45422 168.723 13.9224 168.723 17.9118 167.766C20.465 166.968 19.9863 167.127 20.465 166.968C20.7842 166.968 21.1033 166.808 21.582 166.808C21.582 166.808 21.9012 166.649 22.5395 166.649C23.1778 166.489 23.8161 166.489 24.614 166.489C26.2098 166.489 27.8055 166.649 27.646 166.489C29.0822 166.649 30.1992 166.649 30.5184 166.489ZM23.9757 164.414C22.6991 164.255 21.7416 164.414 21.7416 164.414C21.2629 164.414 20.9437 164.574 20.465 164.574C20.3054 164.574 19.9863 164.734 19.8267 164.734H19.5075H19.348L18.7097 164.893C16.7947 165.531 15.0394 165.851 13.2841 165.851C11.5287 165.851 9.61379 165.532 8.01802 164.734C6.42226 163.936 4.98606 162.819 4.0286 161.382C3.07114 159.946 2.59242 158.191 2.59242 156.276C2.59242 154.521 2.91156 152.606 3.54987 150.85C4.18818 149.095 5.14563 147.499 6.26267 146.063C8.65632 143.191 12.167 141.595 15.8373 141.116C17.7522 140.957 19.5075 140.957 21.4225 141.435C23.3374 141.755 24.9332 142.393 26.5289 143.35C27.3268 143.829 27.9651 144.467 28.6034 145.106C29.2417 145.744 29.7205 146.542 30.0396 147.34C30.3588 148.138 30.6779 148.936 30.8375 149.893C30.8375 150.691 30.9971 151.648 30.6779 152.446C30.3588 154.202 29.5609 155.797 28.4439 157.393C27.9651 158.191 27.3268 158.989 26.6885 159.627L26.2098 160.265L25.2523 161.382L25.0927 161.702L24.9332 161.861L25.0927 162.021L25.5715 162.5L26.5289 163.457L27.9651 164.893C26.6885 164.893 25.0927 164.574 23.9757 164.414Z" fill="#E13632"/>
<path d="M40.4116 174.468L40.5712 174.627C40.5712 174.787 40.5712 174.947 40.5712 175.106V175.266C40.5712 175.266 40.5712 175.266 40.7307 175.266C40.8903 175.266 40.8903 175.266 41.0499 175.106C41.0499 175.106 41.0499 175.106 41.0499 175.266C41.0499 175.266 41.0499 175.266 41.2095 175.425C41.3691 175.585 41.5286 175.585 41.6882 175.585C41.8478 175.585 41.8478 175.585 41.8478 175.585L42.1669 175.425H42.4861L43.4435 175.266C44.0819 175.106 44.7202 175.106 45.3585 175.106C48.55 174.787 51.9011 174.787 55.0927 174.787H57.0076C57.0076 174.787 58.7629 174.627 60.3587 174.627C61.9545 174.468 63.7098 174.308 63.5502 174.308C64.8268 174.149 65.9439 173.83 66.263 173.51C66.4226 173.191 65.7843 173.032 63.5502 172.872C60.6779 172.553 57.3267 172.393 57.3267 172.393H55.0927C51.7415 172.393 48.3904 172.393 45.0393 172.712C44.401 172.712 43.6031 172.872 42.9648 173.032L42.0074 173.191H41.6882C41.5286 173.191 41.5286 173.191 41.369 173.191L40.7307 173.351L40.5712 173.51C40.4116 173.67 40.4116 173.83 40.252 173.989L40.4116 174.468Z" fill="#E13632"/>
<path d="M65.3058 177.98C62.7526 177.502 59.0823 177.182 59.0823 177.182H56.8483L45.0396 177.342H41.0502C41.0502 177.342 40.8906 177.342 40.8906 177.502C39.614 178.619 40.4119 179.416 40.8906 179.736H41.0502H45.0396L56.8483 179.576H58.7632C58.7632 179.576 60.359 179.416 62.1143 179.416C63.7101 179.257 65.3058 179.257 65.1463 179.257C67.8591 179.097 69.6144 178.619 65.3058 177.98Z" fill="#E13632"/>
<path d="M48.3908 182.286C47.7524 181.966 46.795 181.647 46.795 181.647C46.795 181.647 45.3588 181.647 43.9226 181.807C43.2843 181.807 42.4864 181.807 42.0077 181.807C41.529 181.807 41.2098 181.807 41.0502 181.807C41.0502 181.807 41.0502 181.807 41.0502 181.966C40.7311 183.083 40.8906 183.881 41.0502 184.201C41.0502 184.201 41.3694 184.201 42.0077 184.201C42.4864 184.201 43.2843 184.201 43.9226 184.201C45.3588 184.201 46.6354 184.041 46.6354 184.041L48.2312 183.562C49.0291 183.403 49.3482 182.924 48.3908 182.286Z" fill="#E13632"/>
<path d="M88.6044 137.926C86.0511 137.447 82.3809 137.128 82.3809 137.128H80.1468H70.5722H66.5828C66.5828 137.128 66.4232 137.128 66.4232 137.287C65.1466 138.404 65.9445 139.202 66.4232 139.521H66.5828H70.5722H80.1468H82.0617C82.0617 139.521 83.6575 139.521 85.4128 139.362C87.0086 139.362 88.6044 139.202 88.4448 139.202C91.1576 139.043 92.913 138.564 88.6044 137.926Z" fill="#E13632"/>
<path d="M87.3272 141.756C84.774 141.437 81.1037 141.277 81.1037 141.277H78.8696L70.4121 141.437H66.4226C66.4226 141.437 66.2631 141.437 66.2631 141.597C64.9864 142.714 65.7843 143.511 66.2631 143.831H66.4226H70.4121L79.0292 143.671H80.9441C80.9441 143.671 82.5399 143.511 84.2952 143.352C85.891 143.192 87.4868 143.033 87.3272 143.033C89.8804 142.873 91.6358 142.235 87.3272 141.756Z" fill="#E13632"/>
<path d="M65.7847 146.702L65.6251 146.861L65.7847 146.702Z" fill="#E13632"/>
<path d="M79.6674 146.861C78.3908 146.542 76.795 146.223 76.795 146.223C76.795 146.223 74.0822 146.223 71.529 146.223C70.2524 146.223 68.8162 146.223 67.8587 146.223C67.38 146.223 66.9012 146.223 66.5821 146.223C66.2629 146.223 66.1034 146.223 66.1034 146.223C66.1034 146.223 66.1034 146.223 65.9438 146.382C65.9438 146.542 65.7842 146.701 65.7842 146.701V146.861V147.021C65.7842 147.021 65.7842 147.021 65.7842 147.18C65.7842 147.34 65.7842 147.34 65.6246 147.499H65.4651C65.3055 147.499 65.3055 147.499 65.1459 147.499C65.1459 147.499 64.9863 147.659 65.1459 147.818C65.1459 147.978 65.465 148.138 65.3055 148.138C65.3055 148.297 65.3055 148.297 65.4651 148.457C65.6246 148.616 65.6246 148.776 65.6246 148.776C65.7842 148.776 68.497 148.935 71.0502 148.935C73.763 148.935 76.3163 148.935 76.3163 148.935C76.3163 148.935 79.5078 148.616 79.3483 148.457C80.944 147.818 81.7419 147.34 79.6674 146.861Z" fill="#E13632"/>
<path d="M18.8689 145.584C17.7519 146.063 16.3157 146.861 15.1987 147.499C14.0816 148.138 13.2838 148.616 13.2838 148.616C12.6455 149.095 12.0071 149.574 11.5284 149.893C10.0922 151.01 8.81561 151.967 7.37942 153.244C6.42196 154.202 5.30491 154.999 4.34745 155.957V156.116C4.18787 157.712 5.30491 157.712 5.94322 157.712C6.1028 157.712 6.1028 157.712 6.1028 157.712C7.06027 156.755 8.01773 155.957 8.97519 154.999C10.2518 153.882 11.5284 152.765 12.9646 151.808L14.4008 150.691C14.4008 150.691 15.6774 149.733 16.954 148.616C18.2306 147.659 19.5073 146.701 19.3477 146.701C21.5818 144.946 22.6988 143.669 18.8689 145.584Z" fill="#E13632"/>
<path d="M17.9114 150.372C15.6774 151.649 12.6454 153.723 12.6454 153.723L10.8901 155.159L10.4113 155.478C9.29428 156.276 8.33683 157.234 7.37937 158.032V158.191C7.21979 159.787 8.33683 159.947 8.97514 159.787C9.13472 159.787 9.1347 159.787 9.1347 159.787C10.0922 158.989 11.0496 158.032 12.1667 157.234L12.6454 156.915L14.0816 155.798C14.0816 155.798 15.3582 154.681 16.6348 153.564C17.9114 152.446 19.0285 151.329 18.8689 151.489C20.6242 149.574 21.5817 147.978 17.9114 150.372Z" fill="#E13632"/>
<path d="M15.677 156.914C14.8791 156.914 13.9216 157.233 13.9216 157.233C13.9216 157.233 12.645 158.031 11.2088 158.829C10.5705 159.308 9.93222 159.786 9.45349 160.105C8.97476 160.584 8.65561 160.744 8.65561 160.903V161.063C9.13434 162.02 9.93222 162.499 10.2514 162.659C10.2514 162.659 10.5705 162.339 10.8897 162.02C11.3684 161.701 11.8472 161.222 12.4855 160.903C13.7621 160.105 15.0387 159.307 15.0387 159.307C15.0387 159.307 16.4749 158.031 16.3153 158.031C16.794 157.393 16.9536 156.595 15.677 156.914Z" fill="#E13632"/>
</svg>
