<svg width="70" height="85" viewBox="0 0 70 85" fill="none" xmlns="http://www.w3.org/2000/svg">
<path d="M0.843154 74.8223C0.562091 74.9628 1.26482 75.3844 3.37279 75.9465C5.90235 76.6492 9.55612 77.4924 9.55612 77.4924C9.55612 77.4924 9.97773 77.4924 10.5399 77.6329C10.8209 77.6329 11.2425 77.7734 11.6641 77.7734C17.2853 78.6166 23.7498 79.7409 30.6358 80.7246C38.3651 81.9894 46.6564 83.2542 55.6504 84.3784C56.2125 84.5189 56.9153 84.5189 57.4774 84.6595L59.1637 84.8H59.3043H59.4448V84.3784L59.5854 83.5352C59.7259 82.2704 60.0069 81.0056 60.1474 79.6003C60.4285 77.3518 60.8501 74.9628 61.1312 72.7143C61.8338 68.0768 62.5365 63.2987 63.2391 58.3801C63.9418 53.4615 64.6445 48.5429 65.2066 43.6243C65.4877 41.0947 65.9092 38.5652 66.1903 36.0356C66.3308 34.7708 66.6119 33.506 66.7524 32.2412C66.893 30.9765 67.1741 29.7117 67.3146 28.4469C67.7362 25.9173 68.1577 23.3878 68.5793 20.7177C68.7199 19.4529 68.8604 18.1881 69.0009 16.7828L69.282 14.8153C69.282 14.2532 69.4225 13.41 69.282 12.5668C69.282 12.1453 69.1415 11.5831 68.8604 11.1615C68.7199 10.8805 68.5793 10.7399 68.2982 10.5994C68.1577 10.4589 67.8767 10.3183 67.7362 10.1778C66.893 9.75622 66.1903 9.61569 65.4876 9.47516C64.0823 9.33463 62.8176 9.1941 61.6933 8.91303C59.1638 8.35091 56.4937 8.06984 53.9641 7.64825C43.7053 5.96187 33.306 4.2755 23.1877 2.58912C20.6581 2.16753 18.1285 1.88646 15.599 1.46486C14.0531 1.1838 12.3668 1.04327 10.8209 0.762207H10.3994V1.18381L10.2588 2.16752L10.1183 3.57284L9.8372 5.39975C9.13454 10.4589 8.43189 15.3775 7.72923 20.2961C6.32391 30.1333 4.91857 39.5489 3.65378 48.5429C2.52953 56.1316 1.54588 63.1582 0.56216 69.7631C0.281097 71.8711 0 73.417 0 73.417V73.5575C0.140531 74.5412 0.562091 74.6817 0.843154 74.8223ZM66.4714 12.1453C66.8929 12.2858 67.0335 12.4263 67.174 12.7074C67.3145 12.9884 67.3145 13.41 67.174 13.9722C67.174 13.8316 67.0335 13.5506 66.8929 13.2695C66.8929 12.9884 66.6119 12.5668 66.4714 12.1453ZM66.0498 23.2472C65.9092 23.9499 65.9092 24.6525 65.7687 25.3552C65.7687 25.4957 65.7687 25.6363 65.6282 25.7768C65.6282 25.4957 65.6282 25.3552 65.6282 25.0741C65.6282 24.512 65.4876 23.9499 65.3471 23.3878C65.6282 23.5283 65.7687 23.3878 66.0498 23.2472ZM64.785 11.8642C64.5039 12.0047 64.3634 12.0047 64.3634 12.1453C64.3634 12.1453 64.3634 12.0047 64.2229 12.0047C64.2229 12.0047 64.2228 11.8642 64.0823 11.8642C64.3634 11.7237 64.5039 11.8642 64.785 11.8642ZM64.3634 12.1453C64.3634 12.0047 64.3634 12.0047 64.3634 12.1453V12.1453ZM62.9581 26.7605C62.677 26.7605 62.5365 26.7605 62.9581 26.7605L63.0986 26.901L63.2391 27.1821L63.3796 27.3226C63.0986 27.4632 64.5039 27.0416 65.4876 26.7605C65.3471 27.3226 65.3472 27.7442 65.2066 28.3064C64.785 28.1658 64.0824 27.8848 63.0986 27.6037C62.396 27.4632 61.6933 27.1821 60.8501 27.0416C61.4122 26.9011 62.2554 26.4795 62.8176 26.3389C62.8176 26.62 62.9581 26.62 62.9581 26.7605ZM62.5365 11.5831C62.2554 11.7237 61.8339 11.8642 61.6933 12.0047C61.5528 11.8642 61.5528 11.5831 61.4123 11.4426C61.8338 11.4426 62.1149 11.4426 62.5365 11.5831ZM60.8501 27.0416C60.8501 27.1821 60.8501 27.1821 60.8501 27.0416C58.7421 26.62 56.7747 26.1984 56.7747 26.1984H56.6342C57.0557 26.0579 57.4774 25.9173 58.18 25.6363V25.3552C58.3206 25.3552 58.4611 25.2147 58.18 25.3552L57.899 24.0904L57.1963 20.9987C57.6179 22.123 58.18 23.2472 58.7421 24.231C58.8827 24.6526 59.1637 24.9336 59.4448 25.3552C59.0232 25.6363 58.7421 25.6363 59.4448 25.3552C59.4448 25.3552 59.4448 25.4957 59.5854 25.4957L59.7259 25.6363C59.5853 25.6363 59.7258 25.6363 60.1474 25.4957C60.4285 25.9173 60.7096 26.3389 60.9907 26.7605L60.8501 27.0416ZM59.1637 11.021C59.4448 11.021 59.7259 11.1615 60.0069 11.1615C57.1963 12.2858 59.7259 11.3021 58.8827 11.5831C58.6016 11.7237 58.18 11.8642 57.6179 12.1453C57.4774 12.0047 57.4773 11.7237 57.3368 11.5831V11.4426C58.6016 11.021 57.0557 11.5831 55.9315 11.8642C55.791 11.5831 55.6504 11.3021 55.5099 11.1615L55.2288 10.8805C55.3694 10.8805 55.3694 10.8805 55.2288 10.8805L54.9478 10.4589V10.3183C56.2125 10.5994 57.7584 10.7399 59.1637 11.021ZM53.5424 24.6525L53.683 24.9336C53.1209 25.2147 52.9804 25.2147 53.683 24.9336V25.0741C53.402 25.2147 54.2452 24.7931 55.0883 24.512C55.2289 24.6526 55.2289 24.9336 55.3694 25.0741C55.5099 25.3552 55.6505 25.6363 55.791 25.7768L55.9315 26.0579L51.7155 25.4957C53.1209 24.9336 53.4019 24.6525 53.5424 24.6525ZM52.6993 11.3021C52.8398 11.1615 52.8398 11.1615 52.6993 11.3021V11.3021ZM53.2614 24.7931V24.6525V24.3715V24.0904L53.683 24.7931C53.402 24.6525 52.8399 25.0741 53.2614 24.7931ZM51.4345 9.89675C52.5587 10.0373 53.683 10.1778 54.6668 10.3183C53.5425 10.8805 52.8399 11.1615 52.5588 11.3021C52.4183 11.021 52.2777 10.8805 52.1371 10.5994C52.2777 10.5994 52.2777 10.5994 52.1371 10.5994C52.1371 10.5994 52.1371 10.5994 52.1371 10.4589L51.9966 10.1778V10.0373C51.0129 10.4589 50.3102 10.5994 50.0292 10.7399V10.5994L49.8887 10.3183C50.1697 10.1778 50.0292 10.3183 49.8887 10.3183V10.1778V10.0373C48.0617 10.7399 47.4996 10.8805 47.4996 10.8805C47.4996 10.7399 47.3591 10.7399 47.3591 10.5994L46.797 9.89675C45.9538 10.3183 48.3428 9.05356 45.5322 10.4589C45.2512 10.1778 45.1106 9.75622 44.8296 9.47516C44.689 9.33463 44.5484 9.05357 44.4079 8.91303L44.1269 8.63196L43.9863 8.49144C43.5647 8.63197 43.8458 8.49144 44.1269 8.49144C46.3754 9.05356 48.9049 9.47515 51.4345 9.89675ZM48.0618 25.0741L47.9212 24.6525C47.6401 23.6688 47.3591 22.8256 47.078 21.8419C46.3754 19.7339 45.6727 17.626 44.9701 15.518C45.1106 15.9396 45.2511 16.2207 45.3916 16.6423C46.0943 18.4692 46.797 20.4366 47.4996 22.404C47.6401 22.8256 47.9212 23.3878 48.2023 23.8094L48.3428 24.231L48.4833 24.3715C49.3265 23.9499 46.797 25.0741 49.7482 23.8094C50.0292 24.231 50.1698 24.6526 50.4508 25.0741L50.5913 25.2147C50.4508 25.2147 50.4508 25.2147 50.5913 25.2147L50.7318 25.3552L48.3428 25.0741C48.3428 25.0741 48.2023 25.0741 48.0618 25.0741C48.4834 24.9336 48.2023 24.9336 48.0618 25.0741ZM47.3591 11.021V11.1615L47.4996 11.5831C47.3591 11.4426 47.2185 11.3021 47.2185 11.021C47.3591 11.021 47.9212 10.7399 47.3591 11.021ZM43.2837 23.8094V23.5283L43.1432 22.8256C43.0026 22.4041 43.0026 21.9825 42.8621 21.5609C42.7216 21.1393 42.581 20.5771 42.581 20.1555C43.1431 21.4203 43.8458 22.8256 44.5485 24.0904C44.689 24.231 44.8296 24.3715 44.8296 24.6525C44.1269 24.512 43.2837 24.3715 42.581 24.231C43.1431 23.9499 43.4242 23.6688 43.2837 23.8094ZM43.7052 8.63196C43.4242 8.7725 42.8621 8.91303 41.5973 9.61569C41.5973 10.5994 41.7378 11.4426 41.8783 12.4263C41.8783 12.5669 41.8783 12.5668 41.8783 12.7074C41.4568 11.8642 41.0352 11.021 40.6136 10.1778C40.3326 9.75622 40.192 9.33463 39.911 8.91303L39.4893 8.35091C39.7704 8.21037 39.911 8.21038 39.911 8.21038C41.1757 8.21038 42.4405 8.3509 43.7052 8.63196ZM39.2083 22.2635V21.8419C39.2083 21.8419 39.2083 21.8419 39.2083 21.7014C39.2083 21.8419 39.3488 21.8419 39.3488 21.9824C39.6299 22.5446 39.9109 23.1067 40.3325 23.6688C39.3488 23.5283 38.365 23.3878 37.3813 23.1067C37.9435 22.9662 39.4894 22.123 39.2083 22.2635ZM39.911 7.92931C39.4894 8.06984 36.9598 9.05357 37.2408 8.91303V9.05356V9.19409V9.47516C37.1003 9.47516 37.1003 9.47516 36.9598 9.61569C36.6787 9.05357 36.2571 8.49144 35.8355 7.78878C35.695 7.50772 35.4139 7.36718 35.2734 7.22665C36.8192 7.50771 38.3651 7.64824 39.911 7.92931ZM37.5219 10.3183C37.3814 10.0373 37.2409 9.89675 37.1003 9.61569C37.1003 9.61569 37.2408 9.61569 37.3813 9.47516V9.61569C37.3813 9.89675 37.3814 10.0373 37.5219 10.3183ZM35.2734 7.22665C35.1328 7.22665 35.1328 7.22665 35.2734 7.22665V7.22665ZM35.2734 7.22665C34.9923 7.36718 34.4302 7.64825 33.306 8.35091V8.49144V8.63196L33.4465 8.91303C33.1654 8.35091 33.0249 7.78878 32.7438 7.36719C32.6033 7.22666 32.4627 6.94559 32.4627 6.80506C33.3059 6.80506 34.2896 7.08612 35.2734 7.22665ZM29.5116 6.24293C29.3711 6.38347 28.9495 6.524 29.5116 6.24293L29.3711 6.52399L29.5116 7.22665C29.5116 7.50771 29.6521 7.64824 29.6521 7.92931C29.5116 7.50771 29.2305 7.08613 28.9494 6.66453C28.8089 6.524 28.809 6.38347 28.6684 6.10241C28.9495 6.10241 29.2305 6.24293 29.5116 6.24293ZM28.9494 20.9987C28.9494 21.1393 29.09 21.1393 29.09 21.2798L29.2305 21.4203C33.587 19.5934 30.3548 20.8582 31.3385 20.5771V20.4366V20.015C31.3385 19.734 31.3385 19.5934 31.198 19.3124C31.198 19.0313 31.0574 18.7502 31.0574 18.4692C31.479 19.4529 31.9007 20.2961 32.6033 21.2798C32.7438 21.4203 32.7439 21.5609 32.8844 21.7014L33.0249 21.8419C33.8681 21.4203 31.0575 22.9662 34.9924 20.7177V20.5771L34.8518 19.7339V19.5934C35.1328 20.1555 35.414 20.7177 35.695 21.2798C35.9761 21.7014 36.2571 22.2635 36.8193 22.6851L37.1003 22.8256L37.2408 22.9662C37.1003 22.9662 36.9598 22.9662 36.8193 22.9662C33.7276 22.4041 30.6358 21.8419 27.5441 21.2798C28.1063 21.2798 28.6684 21.1393 28.9494 20.9987ZM26.8415 5.82134C26.5604 5.96187 26.2794 5.96187 25.9983 6.10241C25.9983 6.38347 25.9983 6.66453 25.9983 6.80506C25.9983 7.08613 25.9983 7.22666 25.9983 7.50772C25.9983 7.64825 25.9983 7.92932 26.1388 8.06985C25.7172 7.36719 25.2957 6.52399 24.8741 5.82134C24.7335 5.6808 24.593 5.54028 24.4525 5.25922C25.1552 5.54028 25.9983 5.6808 26.8415 5.82134ZM26.5605 21.4203C26.1389 21.2798 25.7173 21.2798 25.2957 21.1393C25.2957 21.1393 25.2957 21.1393 25.1552 21.1393C25.4362 20.9987 25.8577 20.8582 26.1388 20.7177C26.2793 20.8582 26.4199 21.1393 26.5605 21.4203ZM23.4688 20.7177L23.6093 20.8582C21.2202 20.4366 18.6906 20.015 16.3016 19.7339C16.5827 19.5934 17.1449 19.4529 17.4259 19.3124C17.4259 19.4529 17.5664 19.4529 17.5664 19.5934C17.0043 19.8745 16.8638 20.015 17.5664 19.5934C17.5664 19.5934 17.5664 19.5934 17.5664 19.7339C17.4259 19.8745 17.988 19.5934 18.5502 19.1718C18.6907 19.3124 18.6907 19.4529 18.8312 19.5934C19.6744 19.1718 17.1449 20.5771 20.2366 18.8908C20.3771 19.1718 20.6581 19.4529 20.7986 19.8745C20.6581 19.8745 20.6581 19.8745 20.7986 19.8745L21.0797 20.1555V20.2961C21.6418 20.015 22.204 19.8745 22.485 19.5934C23.0472 20.015 23.3282 20.4366 23.4688 20.7177ZM21.5013 5.68081C21.5013 5.68081 21.6419 5.68081 21.6419 5.54028C21.6419 5.68081 21.6419 5.82134 21.6419 5.82134C21.6419 5.96187 21.6418 5.82134 21.5013 5.68081ZM21.0797 4.97815C21.6418 5.11868 22.204 5.11869 22.7661 5.25922C22.3445 5.39975 21.7824 5.6808 21.5013 5.82134L21.3608 5.68081L21.2202 5.54028C21.5013 5.39975 21.6418 5.25921 21.2202 5.54028L20.7986 5.11868C20.7986 4.83762 20.9392 4.83762 21.0797 4.97815ZM20.6581 4.83762C20.5176 4.83762 19.3933 5.54028 18.6907 5.96188C18.4096 5.68081 18.2691 5.39974 17.988 5.11868L17.8475 4.97815L17.4259 4.55656C16.8638 4.83762 16.4422 5.11869 16.1611 5.25922L16.0206 4.97815V4.83762C17.1449 4.27549 16.0205 4.83762 14.8963 5.39975C14.7558 5.11869 14.6153 4.97815 14.4747 4.69709C14.3342 4.41603 14.1937 4.13497 14.0531 3.99443C16.3016 4.2755 18.4096 4.55656 20.6581 4.83762ZM15.4585 19.4529C15.4585 19.5934 15.599 19.5934 15.599 19.7339C15.4584 19.7339 15.3179 19.7339 15.0369 19.7339C15.1774 19.4529 15.3179 19.4529 15.4585 19.4529ZM15.0369 19.5934C15.1774 19.5934 15.1774 19.4529 15.318 19.4529C15.318 19.4529 15.1774 19.5934 15.0369 19.5934ZM2.10797 74.2601L2.24847 74.1196C2.24847 73.9791 2.52957 72.5738 2.81063 70.4658C3.79435 64.1419 4.77803 57.3964 5.76175 50.2293C7.02654 41.3758 8.43189 32.1007 9.8372 22.404C9.8372 22.123 9.9777 21.8419 9.9777 21.4203H10.1183H10.3994C10.5399 21.4203 10.6804 21.4203 10.6804 21.4203H11.2425L13.21 21.7014C17.0043 22.123 20.7987 22.6851 24.593 23.3878C28.3874 24.0904 32.1817 24.7931 35.976 25.4957C39.7704 26.1984 43.5647 26.9011 47.4996 27.4632L56.2126 28.5874C56.2126 28.5874 63.0986 29.1496 62.8176 29.009C63.8013 29.009 64.6444 29.009 65.066 28.8685C64.785 30.1333 64.6445 31.5386 64.504 32.8034C64.2229 35.3329 63.8013 37.722 63.5202 40.2515C62.8176 45.1701 62.1149 50.0887 61.5527 54.8668C60.9906 59.6449 60.1474 64.2824 59.4448 68.9199C58.7421 73.417 58.0395 77.7734 57.4774 82.1299L56.2126 81.9894C55.0883 81.8488 54.1046 81.7083 52.9804 81.5678C50.8724 81.2867 48.7644 81.0057 46.6565 80.7246C42.581 80.1625 38.6461 79.6003 34.8518 78.8977C27.2631 77.6329 20.2365 76.6492 14.0531 75.6655C12.9289 75.5249 11.9452 75.3844 11.102 75.2439C10.5399 75.1033 10.1183 75.1033 10.1183 75.1033C10.1183 75.1033 3.23222 74.5412 3.51329 74.6817C2.81063 74.6817 2.10794 74.6817 1.54581 74.6817C1.82687 74.5412 1.96744 74.4007 2.10797 74.2601Z" fill="#E13632"/>
<path d="M21.22 64.8442C22.0632 66.2495 23.328 67.3738 24.5928 68.2169C25.2955 68.6385 25.9981 68.9196 26.7008 69.3412C27.4035 69.6223 28.1061 69.9033 28.9493 70.0439C30.4951 70.4655 31.9004 70.606 33.4463 70.4654C34.1489 70.3249 34.9922 70.3249 35.6948 70.1844C36.1164 70.0439 36.3975 70.0439 36.8191 69.9033L37.9433 69.4817C38.3649 69.3412 38.6459 69.2007 39.0675 69.0601L40.0513 68.498C40.3323 68.3575 40.754 68.0764 41.035 67.9359C41.3161 67.6548 41.7377 67.5143 42.0188 67.2332C42.0188 67.2332 42.1592 67.0927 42.5808 66.6711C42.7214 66.5306 43.0025 66.2495 43.143 66.109C43.2835 65.8279 43.5646 65.5468 43.8456 65.1253C44.1267 64.8442 44.2672 64.4226 44.5483 64.001C44.6888 63.5794 44.9698 63.1578 45.1104 62.5957C45.2509 62.0336 45.3915 61.612 45.3915 61.0498C45.3915 60.4877 45.532 59.9256 45.3915 59.504C45.2509 57.396 44.4077 55.5691 43.7051 54.4449C43.2835 53.8827 43.0025 53.4611 42.7214 53.1801C42.4403 52.899 42.2998 52.7585 42.4403 52.899C42.1593 52.618 41.8782 52.3369 41.5971 52.0558C41.316 51.7748 41.035 51.6342 40.7539 51.4937C40.1918 51.0721 39.6297 50.791 39.2081 50.6505C38.2244 50.2289 37.5217 50.0884 37.2407 50.2289C36.9596 50.3695 37.1001 50.6505 37.6622 51.2126C37.8028 51.3532 37.9433 51.4937 38.2244 51.7748C38.3649 52.0558 38.6459 52.1964 38.7865 52.4774C39.0675 52.7585 39.2081 53.0395 39.4891 53.3206C39.6297 53.4611 39.7703 53.6017 39.9108 53.8827C40.0513 54.0233 40.1918 54.3043 40.3324 54.4449C40.8945 55.4286 41.4566 56.5528 41.5971 57.8176C41.7376 58.9419 41.5972 60.0661 41.3161 60.9093C41.1756 61.3309 41.035 61.7525 40.7539 62.0336C40.6134 62.1741 40.6134 62.3146 40.4729 62.4552C40.3323 62.5957 40.1918 62.7362 40.1918 62.7362C40.0512 62.8767 39.9107 63.1578 39.7702 63.1578C39.6297 63.2983 39.6297 63.2983 39.6297 63.2983C39.2081 63.7199 38.7865 64.001 38.3649 64.2821C38.0838 64.4226 37.8028 64.5631 37.5217 64.7037C37.2407 64.8442 36.9596 64.9847 36.6785 64.9847L35.9758 65.2658C35.6948 65.2658 35.4137 65.4063 35.2732 65.4063C34.7111 65.5468 34.2895 65.5468 33.7274 65.5468C32.7436 65.5468 31.6194 65.5468 30.6357 65.2658C30.0735 65.1253 29.652 64.9847 29.0898 64.8442C28.6683 64.5631 28.1061 64.4226 27.825 64.1415C26.9818 63.5794 26.2792 62.8768 25.8576 62.1741C25.2955 61.4714 25.1549 60.4877 25.0144 59.6445C25.0144 59.2229 24.8739 58.6608 25.0144 58.2392C25.0144 57.9582 25.0145 57.8176 25.155 57.5366C25.155 57.2555 25.2955 57.115 25.2955 56.8339C25.8576 54.8665 27.1224 53.1801 28.8088 52.0558C29.652 51.4937 30.6357 51.0721 31.6194 50.9316C32.1815 50.791 32.6031 50.791 33.3058 50.791C33.8679 50.791 34.2895 50.791 34.5705 50.9316L34.7111 50.791C34.8516 50.6505 34.8517 50.6505 34.9922 50.51C35.1327 50.51 35.1326 50.51 35.2732 50.51C35.2732 50.51 35.5542 50.51 35.9758 50.51C36.3974 50.51 37.1002 50.3695 37.8028 50.2289C39.4892 49.9479 41.4566 48.8236 42.8619 47.2778C44.2672 45.7319 45.1104 43.7645 45.251 42.2186C45.3915 40.6728 45.1104 39.6891 45.1104 39.9701C44.8293 38.2838 43.7051 36.8784 42.7214 36.3163C42.4403 36.1758 42.2998 36.0352 42.0188 35.8947C41.7377 35.7542 41.5971 35.7542 41.4566 35.7542C41.035 35.6137 40.8945 35.6137 40.7539 35.6137C40.4729 35.7542 40.4729 36.0352 41.035 36.7379C41.4566 37.3 42.4403 38.4243 42.5808 40.2512C42.5808 41.2349 42.1593 42.3592 41.4566 43.3429C40.7539 44.3266 39.9107 45.0293 39.0675 45.3103C38.2244 45.7319 37.5217 45.7319 36.9596 45.8724C36.6785 45.8724 36.3974 45.8724 36.2569 45.8724C36.1164 45.8724 35.9758 45.8724 35.9758 45.8724C34.7111 45.8724 33.5868 45.7319 32.4625 45.3103C31.4788 44.8887 30.6357 44.4671 30.2141 43.7645C29.652 43.2023 29.5114 42.4997 29.5114 41.6565C29.5114 41.516 29.5114 41.2349 29.6519 40.9538V40.6728L29.7925 40.3917L29.933 40.1107L30.0736 39.8296L30.2141 39.5485L30.3546 39.2675C30.7762 38.4243 31.6194 37.7216 32.4625 37.1595C33.3057 36.5974 34.2895 36.1758 35.1327 36.0352C35.9759 35.8947 36.8191 36.0352 37.5217 36.3163H37.8028C39.0676 35.8947 40.0513 35.6137 40.4729 34.7705C40.6134 34.3489 40.754 33.9273 40.6134 33.5057C40.6134 33.0841 40.3323 32.6625 40.0513 32.2409C39.9107 32.1004 39.9107 31.9598 39.7702 31.9598C38.0838 30.9761 36.1164 30.8356 34.2895 31.1166C32.6031 31.3977 30.9167 32.1004 29.6519 33.0841C28.2466 34.0678 27.1224 35.1921 26.2792 36.7379L25.9981 37.3L25.7171 37.8622L25.436 38.4243L25.2955 39.1269L25.155 39.8296L25.0144 40.5323C24.8739 40.9538 24.8739 41.3754 24.8739 41.797C24.7334 43.6239 25.436 45.7319 26.7008 47.1372C26.9819 47.4183 27.2629 47.6994 27.5439 47.9804C27.1224 48.1209 26.8414 48.402 26.5603 48.5425C23.8902 50.2289 21.9228 52.899 20.939 55.9907C20.7985 56.4123 20.7985 56.6934 20.658 57.115C20.5174 57.5366 20.5174 57.9582 20.5174 58.2392C20.3768 59.0824 20.3768 59.9256 20.5174 60.6282C19.8147 61.7525 20.2363 63.4389 21.22 64.8442Z" fill="#E13632"/>
</svg>
