<svg width="310" height="153" viewBox="0 0 310 153" fill="none" xmlns="http://www.w3.org/2000/svg">
<path d="M210.543 83.3135C210.511 83.4081 210.511 83.4082 210.417 83.376C209.783 83.6884 208.582 83.8079 208.339 82.0373L208.309 81.816C208.341 81.7214 209.201 80.431 210.508 78.4481C214.651 72.153 219.113 65.2279 223.766 58.0512C225.137 55.8791 226.602 53.7391 228.005 51.4724C229.408 49.2057 230.905 46.971 232.308 44.7043C235.209 40.203 237.89 35.4161 240.792 30.5989C243.694 25.7817 246.818 20.9342 250.477 16.374C250.891 15.776 251.4 15.2103 251.814 14.6124C252.005 14.3607 252.322 14.0465 252.64 13.7324C252.958 13.4183 253.149 13.1667 253.466 12.8525C254.07 12.3189 254.673 11.7852 255.339 11.3783C255.719 11.1909 256.004 10.9713 256.385 10.7839L257.493 10.3163C259.044 9.78805 260.72 9.51323 262.394 9.55431C264.036 9.68999 265.582 10.1094 267.063 10.7181C268.545 11.3267 269.867 12.0925 271.158 12.9528C272.448 13.8131 273.612 14.7359 274.775 15.6586C275.939 16.5814 277.103 17.5042 278.172 18.3948C279.336 19.3176 280.405 20.2083 281.695 21.0686C284.055 22.8196 286.414 24.5705 288.901 26.259L292.55 28.8703L296.2 31.4816C298.497 33.1058 301.487 35.1763 302.542 38.5943C303.038 40.2399 303.059 42.0408 302.608 43.681C302.251 45.3534 301.58 46.7081 300.782 48.1253C300.111 49.48 299.25 50.7704 298.517 51.9983C297.689 53.1942 296.923 54.5167 296.095 55.7125C294.501 58.2309 292.939 60.6547 291.283 63.0463C284.909 72.8039 278.662 82.4991 272.638 91.8479C271.108 94.1771 269.578 96.5063 268.175 98.773C266.773 101.04 265.432 103.433 263.935 105.668C262.532 107.934 261.034 110.169 259.347 112.339C257.693 114.415 255.754 116.394 253.345 117.897C252.14 118.649 250.778 119.241 249.261 119.359C248.913 119.452 248.503 119.418 248.187 119.416C247.965 119.446 247.776 119.382 247.65 119.445L247.144 119.379L246.134 119.247C245.818 119.245 245.44 119.116 245.156 119.02C242.538 118.342 240.301 117.16 238.224 115.821C234.037 113.239 230.547 110.154 226.992 107.575C226.551 107.32 226.143 106.97 225.607 106.683C225.166 106.427 224.725 106.172 224.317 105.822C223.876 105.567 223.435 105.312 222.994 105.057C222.553 104.801 222.018 104.514 221.545 104.353C219.655 103.395 217.797 102.342 216.033 101.321C214.27 100.3 212.571 99.0897 210.998 97.8171C210.275 97.1496 209.458 96.4499 208.862 95.7199C208.799 95.5932 208.61 95.5289 208.548 95.4022C208.266 94.9899 207.952 94.6722 207.732 94.3866C207.513 94.101 207.388 93.8476 207.231 93.6887C207.073 93.5299 207.106 93.4353 207.106 93.4353C207.106 93.4353 206.981 93.1819 206.825 92.7071C206.67 92.2323 206.452 91.6308 206.299 90.8401C205.992 89.2587 206.256 87.2383 207.022 85.9158C207.213 85.6641 207.309 85.3803 207.5 85.1286C207.691 84.877 207.85 84.7199 207.914 84.5307C208.137 84.1845 208.423 83.965 208.582 83.8079C208.9 83.4938 209.121 83.4634 209.151 83.6847C209.182 83.9061 209.085 84.1898 208.925 84.6628C208.764 85.1358 208.571 85.7034 208.441 86.3977C208.473 86.3031 208.439 86.7136 208.246 87.2812C208.148 87.8809 208.112 88.6073 208.266 89.398C208.419 90.1887 208.732 90.8223 209.076 91.3613C209.201 91.6148 209.358 91.7737 209.483 92.0271C209.546 92.1538 209.608 92.2805 209.608 92.2805C209.608 92.2805 209.67 92.4073 209.765 92.4394C209.827 92.5661 209.985 92.725 210.204 93.0105C210.267 93.1373 210.424 93.2961 210.486 93.4229C210.581 93.455 210.643 93.5817 210.643 93.5817L210.706 93.7084C210.768 93.8351 210.863 93.8673 210.957 93.8994L211.334 94.3438C211.648 94.6616 211.868 94.9471 212.214 95.1702C214.729 97.396 217.972 99.3415 221.373 101.13C222.255 101.64 223.169 102.056 224.051 102.567C224.492 102.822 225.027 103.109 225.468 103.365C225.909 103.62 226.35 103.875 226.853 104.257C228.679 105.405 230.44 106.742 232.107 108.046C235.536 110.688 239.09 113.583 243.218 115.407C243.753 115.695 244.258 115.761 244.794 116.048C245.361 116.241 245.867 116.307 246.339 116.467C246.845 116.534 247.444 116.632 247.949 116.698C248.171 116.667 248.455 116.764 248.676 116.733C248.897 116.703 249.213 116.705 249.434 116.675C251.458 116.307 253.393 114.959 255.014 113.294C256.729 111.661 258.257 109.648 259.69 107.602C261.124 105.557 262.494 103.385 263.803 101.086C264.504 99.9527 265.111 98.7872 265.907 97.686C266.608 96.5526 267.404 95.4514 268.106 94.3181C269.603 92.0835 271.006 89.8167 272.536 87.4875C278.496 78.3279 284.679 68.822 290.926 59.1268C292.488 56.7031 294.049 54.2793 295.611 51.8555C296.439 50.6596 297.173 49.4317 297.906 48.2038C298.64 46.9758 299.279 45.7157 299.697 44.486C300.114 43.2562 300.437 41.9943 300.318 40.7931C300.198 39.5919 299.731 38.4836 299.01 37.5001L298.728 37.0878L298.414 36.7701C298.162 36.5792 297.942 36.2936 297.691 36.1026L296.968 35.435L296.559 35.0852L296.15 34.7354L292.595 32.1562C290.236 30.4053 287.844 28.7489 285.452 27.0925C284.256 26.2643 283.093 25.3415 281.897 24.5133L280.135 23.1765L279.191 22.5392C278.939 22.3483 278.625 22.0306 278.374 21.8396C277.21 20.9168 276.046 19.9941 274.883 19.0713L273.153 17.6398C272.587 17.1311 272.084 16.7491 271.486 16.335C270.888 15.9209 270.385 15.5389 269.787 15.1249L268.905 14.6144C268.653 14.4234 268.307 14.2003 268.023 14.1039C266.89 13.4025 265.566 12.9527 264.304 12.6296C263.042 12.3065 261.716 12.1726 260.483 12.3868C259.851 12.3832 259.249 12.601 258.648 12.8187C258.141 13.0686 257.539 13.2863 256.968 13.7254C255.89 14.4143 254.937 15.3566 254.078 16.3311C253.188 17.4002 252.392 18.5015 251.501 19.5706C248.096 24.0059 245.226 28.7285 242.355 33.4511C239.485 38.1737 236.837 42.866 233.936 47.3673C231.036 51.8686 228.2 56.1808 225.458 60.525C220.996 67.4501 216.789 73.9343 212.837 79.9777C211.53 81.9607 210.67 83.2511 210.543 83.3135Z" fill="#E13632"/>
<path d="M221.715 79.9339C221.683 80.0285 221.683 80.0285 221.556 80.091C221.017 80.4355 219.72 80.8388 219.35 79.1307L219.32 78.9094C219.352 78.8148 220.055 77.3655 221.078 75.2862C221.365 74.7507 221.653 74.2153 221.94 73.6798C222.324 72.8606 222.802 72.0735 223.186 71.2543C223.664 70.4672 224.048 69.6479 224.558 68.7662C224.814 68.3254 225.037 67.9791 225.292 67.5383C225.547 67.0974 225.77 66.7512 226.026 66.3103C226.504 65.5232 227.014 64.6416 227.493 63.8545C228.482 62.1857 229.565 60.5489 230.586 58.7855C234.889 52.0175 239.73 45.221 244.667 38.1406C247.119 34.6477 249.698 31.0924 252.215 27.4103C253.457 25.6166 254.732 23.7282 255.974 21.9345C256.611 20.9903 257.249 20.0461 257.791 19.0698L259.321 16.7407L259.48 16.5836C259.512 16.489 259.544 16.3944 259.606 16.5211L259.953 16.7442L260.645 17.1904L261.873 17.924C265.714 20.2836 269.65 22.6754 273.394 25.3188C275.282 26.5932 277.171 27.8676 279.027 29.2366C280.883 30.6056 282.739 31.9746 284.628 33.249C285.572 33.8862 286.484 34.6181 287.428 35.2553L290.196 37.356L292.965 39.4569L294.317 40.4439L295.324 41.2078L295.984 41.7486L296.331 41.9717C296.425 42.0039 296.425 42.0038 296.393 42.0984L296.329 42.2876L295.21 44.6508C294.922 45.1862 294.635 45.7216 294.38 46.1625C294.092 46.6979 293.837 47.1388 293.455 47.6421C293.168 48.1775 292.818 48.5863 292.531 49.1217C291.256 51.01 289.982 52.8984 288.707 54.7867C288.07 55.7309 287.433 56.6751 286.828 57.5246C286.478 57.9333 286.191 58.4688 285.936 58.9097L285.138 60.3268C283.958 62.2473 282.905 64.1053 281.725 66.0257C280.672 67.8837 279.492 69.8042 278.344 71.6301C277.197 73.4559 276.017 75.3764 274.964 77.2344C273.911 79.0924 272.668 80.8861 271.553 82.6174C270.437 84.3487 269.29 86.1745 268.08 87.8736C266.964 89.6049 265.848 91.3362 264.67 92.9408C263.587 94.5774 262.377 96.2766 261.293 97.9133C260.21 99.5499 259.032 101.154 257.981 102.697C257.599 103.2 257.311 103.735 256.961 104.144L256.133 105.34C256.101 105.434 256.101 105.434 256.007 105.402L255.817 105.338L255.534 105.242L254.904 104.922C254.368 104.635 253.738 104.315 253.203 104.028C252.762 103.773 252.383 103.644 251.943 103.389C248.667 101.538 245.678 99.4675 242.877 97.4613C240.077 95.4551 237.466 93.5132 234.853 91.8872C233.53 91.1215 232.24 90.2611 231.012 89.5276C230.32 89.0813 229.5 88.6976 228.808 88.2514C228.367 87.9961 228.021 87.773 227.737 87.6766C227.107 87.3571 226.855 87.1662 226.855 87.1662C226.855 87.1662 226.006 86.5611 224.872 85.8596C224.274 85.4455 223.676 85.0315 223.079 84.6174C222.481 84.2033 221.82 83.6624 221.349 83.1859C217.606 80.2265 219.53 80.7745 222.177 81.99C222.083 81.9579 222.461 82.0864 223.091 82.4059C223.375 82.5023 223.721 82.7254 224.067 82.9485C224.414 83.1716 224.887 83.3323 225.233 83.5554C226.871 84.3229 228.478 85.185 228.478 85.185C228.478 85.185 228.824 85.4081 229.359 85.6955C230.084 86.0471 230.871 86.5255 231.847 87.0681C233.107 87.7071 234.209 88.5031 235.531 89.2689C236.129 89.683 236.759 90.0025 237.452 90.4487C238.05 90.8628 238.742 91.309 239.34 91.7231C241.921 93.4437 244.532 95.3856 247.238 97.3597C247.93 97.8059 248.591 98.3467 249.283 98.793C249.976 99.2392 250.763 99.7175 251.455 100.164C252.148 100.61 252.967 100.994 253.66 101.44C254.1 101.695 254.636 101.983 255.203 102.175C257.051 99.532 258.93 96.7941 260.842 93.9616C263.071 90.815 265.176 87.4149 267.469 84.0791C268.585 82.3478 269.7 80.6166 270.816 78.8853C271.421 78.0357 271.931 77.154 272.442 76.2723C272.952 75.3906 273.557 74.541 274.1 73.5647C275.248 71.7388 276.269 69.9755 277.416 68.1496C278.564 66.3238 279.617 64.4658 280.702 62.5132C281.755 60.6552 282.935 58.7347 284.115 56.8142C285.295 54.8937 286.632 53.1322 287.906 51.2438C289.148 49.4501 290.423 47.5617 291.57 45.7358C291.826 45.295 292.113 44.7596 292.368 44.3187C292.624 43.8779 292.911 43.3425 293.166 42.9016L293.23 42.7124L292.475 42.1395C288.858 39.4336 285.367 36.6652 281.622 34.0218L278.916 32.0478C277.972 31.4106 277.155 30.7109 276.21 30.0737C274.322 28.7993 272.528 27.557 270.64 26.2826C269.696 25.6454 268.752 25.0082 267.902 24.4031C266.958 23.7659 265.982 23.2233 265.037 22.5861C263.558 21.6615 262.078 20.737 260.504 19.7803L260.472 19.8748L260.249 20.2211L259.356 21.6061C258.719 22.5503 258.082 23.4944 257.477 24.344C256.235 26.1377 254.96 28.0261 253.718 29.8198C251.233 33.4073 248.749 36.9948 246.296 40.4877C241.392 47.4734 236.678 54.2075 232.471 60.6918C230.398 63.9972 228.453 67.2403 226.634 70.4208C226.156 71.2079 225.772 72.0271 225.294 72.8142C224.91 73.6335 224.432 74.4206 224.08 75.1452C223.857 75.4915 223.76 75.7753 223.537 76.1215C222.418 78.4846 221.842 79.8714 221.715 79.9339Z" fill="#E13632"/>
<path d="M230.667 100.173C230.762 100.205 230.762 100.205 230.824 100.331C231.012 100.712 231.04 101.249 230.817 101.595C230.594 101.941 230.087 102.191 229.328 102.25C229.328 102.25 229.202 102.313 229.107 102.28C228.604 101.898 228.068 101.611 227.281 101.133C226.935 100.91 226.526 100.56 226.15 100.115C226.025 99.862 225.805 99.5764 225.68 99.3229C225.618 99.1962 225.587 98.9749 225.525 98.8482L225.464 98.4055C225.438 97.5524 225.632 96.6689 226.016 95.8497C226.367 95.125 226.971 94.5914 227.574 94.0577C228.145 93.6187 228.811 93.2117 229.539 92.9315C230.267 92.6513 230.964 92.4657 232.006 92.5032C232.322 92.505 232.479 92.6638 232.668 92.7281C232.857 92.7923 233.141 92.8887 233.236 92.9209C233.487 93.1118 233.866 93.2404 234.117 93.4313L234.999 93.9418L235.754 94.5148C236.257 94.8967 236.761 95.2787 237.359 95.6928C237.61 95.8838 237.862 96.0748 238.081 96.3603C238.238 96.5192 238.333 96.5513 238.49 96.7102C238.647 96.869 238.772 97.1225 239.024 97.3135C239.086 97.4402 239.211 97.6936 239.274 97.8204C239.336 97.9471 239.399 98.0738 239.334 98.263C239.427 98.6111 239.457 98.8324 239.456 99.1483C239.484 99.6855 239.291 100.253 239.131 100.726C239.131 100.726 238.874 101.483 238.301 102.238C238.046 102.679 237.696 103.087 237.314 103.591C237.187 103.653 237.123 103.842 236.996 103.905C236.837 104.062 236.646 104.314 236.582 104.503C236.232 104.911 236.009 105.258 235.659 105.666C235.25 105.317 234.747 104.935 234.306 104.679L233.96 104.456L233.803 104.297C233.741 104.171 233.551 104.106 233.489 103.98C229.778 100.926 231.702 101.474 234.317 102.784C234.223 102.752 234.412 102.816 234.758 103.039L234.853 103.071L234.947 103.103C235.042 103.136 235.042 103.136 235.136 103.168C235.168 103.073 235.2 102.978 235.2 102.978L235.233 102.884C235.233 102.884 235.265 102.789 235.297 102.695L235.361 102.505C235.649 101.97 235.904 101.529 236.159 101.088C236.414 100.648 236.416 100.332 236.512 100.048C236.545 99.9532 236.577 99.8586 236.609 99.764C236.641 99.6694 236.641 99.6694 236.641 99.6694C236.705 99.4802 236.707 99.1643 236.771 98.9751C236.803 98.8805 236.741 98.7538 236.773 98.6592L236.711 98.5324C235.768 97.5793 232.905 95.4464 231.549 95.0912C231.36 95.027 230.79 95.1501 230.41 95.3375C229.935 95.4927 229.523 95.7748 229.205 96.0889C228.475 96.6851 227.997 97.4721 228.088 98.1361L228.056 98.2307L228.118 98.3574C228.181 98.4842 228.338 98.643 228.622 98.7393C229.25 99.3747 229.975 99.7264 230.667 100.173Z" fill="#E13632"/>
<path d="M65.4449 96.6207C65.4449 96.6207 65.4449 96.6207 65.5072 96.5416C65.8811 96.0674 67.132 95.1312 68.9361 94.6311L69.0775 94.6143C69.0775 94.6143 69.348 95.084 69.7143 95.7573C69.9681 96.0856 70.1597 96.493 70.3512 96.9003C70.6841 97.2909 70.9546 97.7605 71.2252 98.2302C72.432 99.9507 73.6555 101.813 73.6555 101.813C73.6555 101.813 73.7679 102.158 73.8971 102.644C74.0263 103.13 74.11 103.837 74.0355 104.419C74.1115 106.274 72.9473 106.125 72.0155 105.518C71.9532 105.597 71.5413 105.144 71.0671 104.77C70.83 104.583 70.5929 104.396 70.4348 104.272C70.2768 104.147 70.1187 104.023 70.1187 104.023C70.1187 104.023 68.9119 102.302 67.705 100.581C67.4345 100.112 67.1016 99.7212 66.8311 99.2516C66.5605 98.7819 66.3067 98.4536 66.1152 98.0463C65.7944 97.1526 65.4449 96.6207 65.4449 96.6207Z" fill="#E13632"/>
<path d="M81.3228 121.188C81.5219 120.448 82.1404 119.013 83.5783 117.84C83.5783 117.84 83.7029 117.682 83.7819 117.744C83.7819 117.744 84.3352 118.18 84.9674 118.679C85.6788 119.24 86.4858 120.004 87.3552 120.69C88.2246 121.375 88.9526 122.077 89.6473 122.497C89.9634 122.746 90.2005 122.933 90.3586 123.058C90.5167 123.182 90.5957 123.245 90.5957 123.245C90.5957 123.245 90.7705 123.51 91.1034 123.901C91.3572 124.229 91.7068 124.761 91.9773 125.231C92.564 125.95 92.6932 126.436 92.444 126.752C92.2737 127.131 91.646 127.277 91.0016 127.281C91.0806 127.344 90.2781 127.224 89.6169 127.087C88.8767 126.888 88.1988 126.61 88.1988 126.61C88.1988 126.61 87.6623 126.315 86.951 125.754C86.2397 125.193 85.3703 124.508 84.5009 123.822C83.6315 123.137 82.8244 122.372 82.2712 121.936C81.7179 121.5 81.3228 121.188 81.3228 121.188Z" fill="#E13632"/>
<path d="M107.076 132.902C107.155 132.964 107.155 132.964 107.076 132.902C107.098 133.688 106.982 135.135 105.956 136.761L105.832 136.919C105.832 136.919 105.69 136.936 105.532 136.811L105.453 136.749C107.88 128.794 106.13 134.591 106.636 132.811C106.715 132.873 106.715 132.873 106.856 132.856C106.997 132.84 107.156 132.964 107.376 133.01C108.116 133.209 109.014 133.533 109.896 133.715C111.755 134.284 113.535 134.79 113.535 134.79C113.535 134.79 114.624 135.521 115.228 136.381C116.384 137.677 115.603 138.343 114.551 138.539C114.63 138.602 112.273 138.665 112.273 138.665C112.273 138.665 110.493 138.159 108.634 137.591C107.736 137.267 106.855 137.085 106.114 136.886C105.894 136.84 105.815 136.778 105.595 136.732C105.516 136.67 105.453 136.749 105.374 136.687C105.113 137.506 107.631 129.11 106.557 132.749L106.636 132.811C106.997 132.84 107.076 132.902 107.076 132.902Z" fill="#E13632"/>
<path d="M129.813 145.191C129.813 145.191 129.813 145.191 129.734 145.129C129.446 144.518 129.2 143.042 129.848 141.246L129.972 141.088C130.114 141.071 141.577 141.65 141.577 141.65C141.577 141.65 143.356 142.156 144.729 142.854C146.921 143.813 145.953 144.715 144.572 145.165C144.731 145.29 141.276 145.77 141.276 145.77C141.276 145.77 129.954 145.175 129.813 145.191Z" fill="#E13632"/>
<path d="M163.491 146.368C163.491 146.368 163.491 146.368 163.412 146.306C163 145.853 162.268 144.506 162.254 142.573C162.254 142.573 162.237 142.432 162.3 142.353C162.3 142.353 162.99 142.128 163.883 141.807C164.37 141.678 164.839 141.407 165.467 141.261C166.016 141.053 166.627 140.766 167.238 140.478C169.698 139.471 172.159 138.463 172.159 138.463C172.159 138.463 172.583 138.413 173.228 138.408C173.872 138.404 174.658 138.382 175.381 138.44C177.614 138.534 177.041 139.749 176.073 140.652C176.152 140.714 175.479 141.08 174.884 141.509C174.556 141.763 174.29 141.938 174.024 142.112C173.758 142.287 173.633 142.445 173.633 142.445C173.633 142.445 171.314 143.436 168.853 144.444C168.242 144.731 167.631 145.018 167.083 145.227C166.534 145.435 165.844 145.66 165.437 145.851C164.181 146.143 163.491 146.368 163.491 146.368Z" fill="#E13632"/>
<path d="M187.401 128.559C187.48 128.621 187.417 128.7 187.401 128.559C186.66 128.359 185.305 127.803 184.131 126.365C184.131 126.365 183.973 126.241 184.036 126.162C184.098 126.083 189.386 118.076 189.386 118.076C189.386 118.076 190.62 116.998 191.7 116.44C193.438 115.375 193.792 116.551 193.581 117.795C193.722 117.778 192.688 120.552 192.688 120.552C192.688 120.552 187.463 128.479 187.401 128.559Z" fill="#E13632"/>
<path d="M173.574 124.964C173.433 124.98 173.433 124.98 173.291 124.997C172.189 124.769 170.439 123.901 171.788 121.377C171.85 121.298 171.975 121.14 172.037 121.06C174.153 120.165 176.207 119.349 178.322 118.454C182.412 116.68 186.344 114.782 190.022 112.555L190.554 112.205L191.29 111.76L192.682 110.807L195.483 109.042L196.219 108.597L196.281 108.518L196.236 108.738L196.286 109.162L196.266 110.813L196.306 114.177L196.365 115.89L196.386 116.675L196.508 118.309C196.563 119.378 196.759 120.43 196.813 121.498L196.993 122.408C197.026 122.691 197.139 123.036 197.172 123.319L197.531 125.14C197.531 125.14 197.548 125.281 197.564 125.422C197.581 125.564 197.614 125.846 197.648 126.129C197.794 126.757 197.894 127.605 198.153 128.578C198.219 129.143 198.411 129.551 198.557 130.178C198.765 130.727 198.832 131.292 199.04 131.841C199.186 132.469 199.394 133.017 199.603 133.566C199.811 134.115 200.019 134.663 200.148 135.15C200.244 135.353 200.34 135.557 200.373 135.84C200.469 136.043 200.565 136.247 200.581 136.388C200.694 136.733 200.806 137.079 200.981 137.345C201.189 137.893 201.319 138.38 201.431 138.725C201.594 139.494 201.548 139.714 201.249 139.606C201.028 139.56 200.554 139.187 199.905 138.547C199.651 138.218 199.318 137.828 198.986 137.437C198.811 137.171 198.653 137.047 198.478 136.781C198.303 136.515 198.207 136.311 198.033 136.045C198.049 136.186 197.762 135.575 197.159 134.715C197.063 134.511 196.888 134.245 196.713 133.979C196.696 133.838 196.538 133.714 196.522 133.572C196.505 133.431 196.347 133.306 196.33 133.165C196.043 132.554 195.677 131.88 195.452 131.19C195.339 130.845 195.085 130.517 194.973 130.172C194.86 129.827 194.748 129.482 194.635 129.137C194.411 128.447 194.202 127.898 193.994 127.35C193.786 126.801 193.657 126.315 193.623 126.032C193.511 125.687 193.494 125.546 193.494 125.546C193.219 124.431 192.944 123.317 192.872 122.108C192.739 120.977 192.526 119.784 192.533 118.636L192.474 116.923L192.374 116.075L192.311 116.154C188.367 118.556 184.294 120.471 180.142 122.323C177.806 123.173 175.69 124.068 173.574 124.964Z" fill="#E13632"/>
<path d="M85.6931 70.8702C87.0111 66.6317 88.4064 60.3767 88.4064 60.3767L88.9601 56.5995L91.5414 40.0531L92.6471 33.2191C92.6837 33.1114 92.5023 32.9296 92.5389 32.8219C92.2494 32.2429 91.8867 31.8794 91.5964 31.6606C92.4332 31.344 91.5622 30.6878 87.5661 29.5708C83.2797 28.2352 77.0669 26.846 77.0669 26.846L26.4851 18.6782L19.581 17.5349C19.4721 17.4979 19.2899 17.6763 19.181 17.6393C18.271 18.1714 17.8335 18.7438 17.7595 19.3194C16.7788 18.9864 15.9412 19.6631 15.3948 20.1985C15.2492 20.2692 15.2126 20.3769 15.3216 20.4139L14.2159 27.248L11.3761 45.629L10.8598 48.9383C10.8598 48.9383 9.70702 60.5627 9.99894 60.0611C9.96075 60.8892 9.92259 61.7174 9.92099 62.4378C9.40953 63.5858 9.3713 64.414 9.76979 65.03C9.62263 65.8211 10.2025 66.6188 10.6741 67.0193C10.7465 67.164 10.8555 67.2011 10.8921 67.0933L17.7961 68.2366L68.2689 76.3674C68.2689 76.3674 80.0074 77.5906 79.4626 77.4056C84.2238 77.7009 87.3148 77.1887 79.9764 75.1769C75.69 73.8412 69.4772 72.4521 69.4772 72.4521L18.423 64.244L15.6613 63.7867C16.4623 63.2176 17.2633 62.6486 18.0643 62.0795C18.7197 61.5811 19.5207 61.012 20.1395 60.6214C20.9039 60.1601 21.5959 59.554 22.2513 59.0557L26.5839 55.9612L29.3146 54.0048C29.3146 54.0048 38.3822 46.6306 37.9456 46.8428C38.8197 46.0583 39.6939 45.2737 40.168 44.5936C40.6396 44.9942 41.2203 45.4317 41.7643 45.977C43.9413 47.7978 46.2638 49.5479 46.0825 49.3662C47.5341 50.46 48.9498 51.3013 49.7126 51.5604C49.8574 51.8499 50.0022 52.1394 50.1835 52.3211C50.7642 52.7587 51.418 52.9807 51.8904 53.021C51.9994 53.058 52.1084 53.0951 52.145 52.9873C53.9283 52.0309 56.1109 51.3303 58.3667 50.4142C59.0945 50.0606 59.9312 49.744 60.659 49.3904L61.0957 49.1783C61.7121 49.8683 62.3285 50.5583 62.945 51.2483C63.6338 52.083 64.286 53.0255 65.0838 53.8972L71.6807 62.3861L73.7104 64.998C73.7104 64.998 81.397 73.857 81.1799 73.4228C83.8635 76.2568 86.1861 78.0069 84.5213 74.6778C84.5945 74.4624 85.0336 73.1696 85.6931 70.8702ZM36.5322 44.9209C32.5289 47.0459 27.1416 50.3829 27.1416 50.3829L24.0832 52.5884L19.7506 55.6829C18.9862 56.1443 18.2943 56.7504 17.5299 57.2117C16.7655 57.6731 16.0734 58.2792 15.309 58.7405C14.1804 59.5588 12.9427 60.34 11.814 61.1582C11.8506 61.0505 11.9238 60.835 11.9604 60.7273C13.2784 56.4887 14.6737 50.2337 14.6737 50.2337L15.2273 46.4565L18.0672 28.0754L18.6567 24.5507C19.6 25.3517 20.6157 26.2975 21.5224 27.2062C25.948 31.3529 30.3004 35.7149 34.6893 39.9692L37.0468 42.332C37.0468 42.332 37.6999 42.9143 38.7522 43.7523C38.3155 43.9645 37.4421 44.3889 36.5322 44.9209ZM65.2176 42.7679L60.924 44.674L58.7772 45.6272C58.0494 45.9808 57.4671 46.2636 56.7759 46.5095C54.6657 47.3548 52.4831 48.0555 50.1175 49.2947C49.972 49.3655 49.8988 49.5809 49.8988 49.5809C49.8256 49.7964 49.7891 49.9041 49.7159 50.1196C49.3174 49.5036 48.592 48.7766 47.7219 47.7601C44.8577 44.3841 40.6516 39.5911 40.6516 39.5911L37.9314 36.8648C33.5425 32.6105 29.1901 28.2484 24.6922 23.9571C24.0392 23.3748 23.3861 22.7926 22.8421 22.2473L25.9672 22.7079L75.9676 30.7983C75.9676 30.7983 87.7061 32.0216 87.1613 31.8365C87.8883 31.8431 88.6152 31.8497 89.1966 31.927C89.0511 31.9978 88.869 32.1762 88.8324 32.2839C88.6868 32.3546 88.6503 32.4624 88.7592 32.4994L88.6852 33.0751C88.3941 33.2165 88.1396 33.2502 87.8485 33.3917C83.5923 34.8299 77.6982 37.1538 77.6982 37.1538L74.2415 38.7433L65.2176 42.7679ZM82.7819 72.2846C80.5731 68.4103 77.0225 63.119 77.0225 63.119L74.6666 60.0358L68.1787 51.5839C67.5264 50.6415 66.7653 49.662 65.9675 48.7902C65.6414 48.319 65.2787 47.9555 64.9526 47.4843L67.0994 46.5311L75.7232 42.6111L78.7433 41.2337C78.7433 41.2337 81.2911 39.8159 83.8388 38.3982C85.6221 37.4418 87.2964 36.4485 88.0607 35.9871L87.5079 39.4041L84.9265 55.9505L84.4103 59.2597C84.4103 59.2597 83.3665 70.9211 83.5494 70.3825C83.5104 71.5708 83.508 72.6515 83.5788 73.5167C83.2527 73.0454 82.999 72.7189 82.7819 72.2846Z" fill="#E13632"/>
</svg>
