<svg width="55" height="74" viewBox="0 0 55 74" fill="none" xmlns="http://www.w3.org/2000/svg">
<g clip-path="url(#clip0)">
<path d="M55.5774 -0.439697H-0.825134V73.9891H55.5774V-0.439697Z" fill="white"/>
<path d="M32.4771 44.8941L24.4334 33.4816V44.8941H17.7509V17.2979H24.4334V28.2979L31.8584 17.2979H38.8296L29.3834 30.7316L39.2696 44.8941H32.4771Z" fill="#333333"/>
<path d="M38.5963 7.16406L34.3751 13.1728H41.3463V44.8941H48.4276V7.16406H38.5963Z" fill="#333333"/>
<path d="M6.57227 7.13647V56.0315H48.386V48.9502H13.6535V13.1727H29.5073L33.6185 7.13647H6.57227Z" fill="#E13632"/>
<path d="M6.68237 60.1978H8.57987C8.82327 60.1569 9.07271 60.1701 9.31038 60.2367C9.54806 60.3032 9.76812 60.4214 9.95487 60.5828C10.1955 60.8398 10.3284 61.1794 10.3261 61.5315C10.3381 61.8051 10.2559 62.0744 10.0932 62.2946C9.93058 62.5148 9.69731 62.6726 9.43237 62.7415C9.75089 62.7925 10.0379 62.9633 10.2347 63.2189C10.4315 63.4745 10.5232 63.7956 10.4911 64.1165C10.4988 64.3572 10.4431 64.5955 10.3297 64.8079C10.2163 65.0202 10.0491 65.1991 9.84487 65.3265C9.48088 65.5296 9.06331 65.616 8.64862 65.574H6.68237V60.1978ZM7.39737 62.439H8.42862C8.67612 62.439 9.52862 62.439 9.52862 61.6003C9.52862 60.7615 8.86862 60.8028 8.45612 60.8028H7.39737V62.439ZM7.39737 64.9278H8.66237C8.79407 64.9434 8.92758 64.9308 9.05404 64.8909C9.1805 64.8509 9.29702 64.7845 9.39585 64.6961C9.49468 64.6077 9.57357 64.4992 9.62728 64.378C9.68099 64.2567 9.70829 64.1254 9.70737 63.9928C9.70808 63.8633 9.68147 63.7351 9.62927 63.6165C9.57708 63.498 9.50047 63.3918 9.40446 63.3048C9.30844 63.2179 9.19517 63.1522 9.07204 63.112C8.94891 63.0718 8.81869 63.058 8.68987 63.0715H7.39737V64.9278Z" fill="#333333"/>
<path d="M11.6739 61.8752V64.254C11.6739 64.6115 11.7564 65.0652 12.4714 65.0652C12.6416 65.0739 12.8112 65.0379 12.9632 64.9607C13.1151 64.8835 13.2442 64.7678 13.3377 64.6252C13.4551 64.4161 13.5077 64.1768 13.4889 63.9377V61.8752H14.2177V64.8865C14.2177 64.9552 14.2177 65.3677 14.2177 65.574H13.5164V64.9415C13.4203 65.1648 13.2545 65.351 13.0439 65.4725C12.8333 65.5939 12.5891 65.644 12.3477 65.6152C12.1699 65.6452 11.9876 65.6342 11.8147 65.5829C11.6419 65.5316 11.4831 65.4415 11.3504 65.3194C11.2177 65.1974 11.1147 65.0466 11.0492 64.8786C10.9838 64.7106 10.9576 64.5299 10.9727 64.3502V61.8752H11.6739Z" fill="#333333"/>
<path d="M15.6197 64.4192C15.6197 64.6942 15.7572 65.093 16.431 65.093C16.5494 65.1067 16.6695 65.0928 16.7816 65.0522C16.8938 65.0116 16.995 64.9456 17.0772 64.8592C17.1548 64.7559 17.1981 64.6309 17.201 64.5017C17.201 64.1442 16.9397 64.0755 16.3897 63.9517C15.606 63.773 15.0147 63.6217 15.0147 62.8517C15.0147 62.0817 15.606 61.7242 16.3897 61.7242C16.6494 61.6921 16.9129 61.7285 17.1542 61.8298C17.3954 61.9311 17.6059 62.0938 17.7647 62.3017C17.8386 62.4704 17.8716 62.6542 17.861 62.838H17.1597C17.1597 62.2742 16.6922 62.233 16.4447 62.233C16.1972 62.233 15.6885 62.233 15.6885 62.7692C15.6885 63.3055 16.0185 63.1817 16.211 63.2367C17.2422 63.4842 17.4622 63.5392 17.6822 63.7455C17.7731 63.8348 17.8445 63.9421 17.8918 64.0604C17.9392 64.1787 17.9614 64.3056 17.9572 64.433C17.96 64.6179 17.916 64.8005 17.8295 64.9639C17.743 65.1273 17.6167 65.2663 17.4622 65.368C17.1276 65.5572 16.7462 65.6478 16.3622 65.6292C15.606 65.6292 14.9047 65.313 14.9185 64.4192H15.6197Z" fill="#333333"/>
<path d="M18.5075 60.2114H19.3463V60.9677H18.5075V60.2114ZM18.5075 61.8202H19.25V65.5189H18.5488L18.5075 61.8202Z" fill="#333333"/>
<path d="M20.1437 62.2468V61.8756H20.8449V62.4668C20.9975 62.2252 21.2216 62.0372 21.486 61.9288C21.7504 61.8205 22.042 61.7972 22.3203 61.8622C22.5985 61.9273 22.8496 62.0774 23.0386 62.2917C23.2276 62.506 23.3452 62.7739 23.3749 63.0581V65.5743H22.6737V63.1681C22.6869 63.054 22.6753 62.9384 22.6397 62.8293C22.6041 62.7201 22.5453 62.6199 22.4674 62.5356C22.3832 62.4503 22.2824 62.3831 22.1713 62.3382C22.0601 62.2933 21.941 62.2715 21.8212 62.2743C21.6812 62.2752 21.543 62.3057 21.4157 62.3638C21.2885 62.422 21.1749 62.5065 21.0827 62.6117C20.9904 62.717 20.9215 62.8406 20.8806 62.9744C20.8396 63.1082 20.8274 63.2492 20.8449 63.3881V65.5193H20.1574L20.1437 62.2468Z" fill="#333333"/>
<path d="M24.7502 63.7864C24.7502 64.5564 25.0527 65.1614 25.8227 65.1614C25.9304 65.1689 26.0385 65.1547 26.1407 65.1199C26.2428 65.085 26.337 65.0301 26.4177 64.9584C26.4983 64.8867 26.5639 64.7996 26.6105 64.7023C26.6571 64.6049 26.6838 64.4992 26.689 64.3914H27.3902C27.3709 64.6781 27.2545 64.9497 27.0602 65.1614C26.8994 65.3327 26.7024 65.466 26.4836 65.5517C26.2648 65.6373 26.0296 65.6731 25.7952 65.6564C24.6265 65.6564 24.0765 64.9277 24.0765 63.7589C24.0247 63.4302 24.0595 63.0936 24.1777 62.7825C24.2959 62.4714 24.4932 62.1966 24.7502 61.9852C25.051 61.7992 25.4008 61.7082 25.754 61.7239C27.4177 61.7239 27.3765 63.1814 27.3627 63.7864H24.7502ZM26.6752 63.2502C26.6752 62.8927 26.6752 62.1639 25.754 62.1639C25.6137 62.1591 25.474 62.1845 25.3444 62.2385C25.2149 62.2926 25.0985 62.3739 25.0032 62.477C24.9079 62.5801 24.836 62.7026 24.7924 62.836C24.7487 62.9694 24.7343 63.1107 24.7502 63.2502H26.6752Z" fill="#333333"/>
<path d="M28.4621 64.4192C28.4621 64.6942 28.5996 65.093 29.2733 65.093C29.3918 65.1067 29.5118 65.0928 29.624 65.0522C29.7361 65.0116 29.8373 64.9456 29.9196 64.8592C29.9972 64.7559 30.0404 64.6309 30.0433 64.5017C30.0433 64.1442 29.7821 64.0755 29.2321 63.9517C28.4483 63.773 27.8571 63.6217 27.8571 62.8517C27.8571 62.0817 28.4483 61.7242 29.3008 61.7242C29.5605 61.6921 29.8241 61.7285 30.0653 61.8298C30.3065 61.9311 30.517 62.0938 30.6758 62.3017C30.7497 62.4704 30.7827 62.6542 30.7721 62.838H29.9746C29.9746 62.2742 29.5071 62.233 29.2596 62.233C29.0121 62.233 28.5033 62.233 28.5033 62.7692C28.5033 63.3055 28.8333 63.1817 29.0258 63.2367C30.0571 63.4842 30.2771 63.5392 30.4971 63.7455C30.588 63.8348 30.6594 63.9421 30.7067 64.0604C30.754 64.1787 30.7763 64.3056 30.7721 64.433C30.7748 64.6179 30.7309 64.8005 30.6444 64.9639C30.5579 65.1273 30.4315 65.2663 30.2771 65.368C29.9425 65.5572 29.5611 65.6478 29.1771 65.6292C28.4208 65.6292 27.7196 65.313 27.8021 64.4192H28.4621Z" fill="#333333"/>
<path d="M31.8173 64.4192C31.8173 64.6942 31.9548 65.093 32.6286 65.093C32.747 65.1067 32.8671 65.0928 32.9792 65.0522C33.0914 65.0116 33.1926 64.9456 33.2748 64.8592C33.3524 64.7559 33.3957 64.6309 33.3986 64.5017C33.3986 64.1442 33.1373 64.0755 32.5873 63.9517C31.8036 63.773 31.2123 63.6217 31.2123 62.8517C31.2123 62.0817 31.8036 61.7242 32.6561 61.7242C32.9157 61.6921 33.1793 61.7285 33.4205 61.8298C33.6617 61.9311 33.8722 62.0938 34.0311 62.3017C34.105 62.4704 34.1379 62.6542 34.1273 62.838H33.4261C33.4261 62.2742 32.9586 62.233 32.7111 62.233C32.4636 62.233 31.9548 62.233 31.9548 62.7692C31.9548 63.3055 32.2848 63.1817 32.4773 63.2367C33.5086 63.4842 33.7286 63.5392 33.9486 63.7455C34.0395 63.8348 34.1109 63.9421 34.1582 64.0604C34.2055 64.1787 34.2278 64.3056 34.2236 64.433C34.2263 64.6179 34.1824 64.8005 34.0959 64.9639C34.0093 65.1273 33.883 65.2663 33.7286 65.368C33.394 65.5572 33.0126 65.6478 32.6286 65.6292C31.8723 65.6292 31.1711 65.313 31.1848 64.4192H31.8173Z" fill="#333333"/>
<path d="M37.9774 61.6277C37.9656 61.4899 37.9259 61.356 37.8607 61.2341C37.7955 61.1122 37.7061 61.0049 37.598 60.9186C37.4899 60.8324 37.3654 60.7692 37.232 60.7327C37.0987 60.6962 36.9593 60.6873 36.8224 60.7064C35.5436 60.7064 35.3099 62.0814 35.3099 62.9064C35.3099 63.7314 35.5986 64.9964 36.8224 64.9964C36.9807 65.0052 37.1391 64.9817 37.288 64.9274C37.4369 64.873 37.5732 64.7889 37.6886 64.6802C37.8274 64.5209 37.918 64.3253 37.9499 64.1164H38.7611C38.6771 64.5697 38.4251 64.9745 38.0554 65.2498C37.6857 65.5252 37.2257 65.6508 36.7674 65.6014C34.8836 65.6014 34.5261 63.9514 34.5261 62.8514C34.5261 61.7514 34.9661 60.1014 36.8636 60.1014C37.0885 60.0746 37.3165 60.0925 37.5345 60.1541C37.7525 60.2157 37.9561 60.3198 38.1337 60.4603C38.3113 60.6009 38.4594 60.7752 38.5694 60.9731C38.6795 61.1711 38.7493 61.3889 38.7749 61.6139L37.9774 61.6277Z" fill="#333333"/>
<path d="M39.3661 60.1982H40.0674V65.5195H39.3661V60.1982Z" fill="#333333"/>
<path d="M41.5385 61.8752V64.254C41.5385 64.6115 41.621 65.0652 42.336 65.0652C42.5035 65.0756 42.6709 65.0431 42.8224 64.9709C42.9739 64.8988 43.1046 64.7893 43.2022 64.6527C43.3197 64.4436 43.3723 64.2043 43.3535 63.9652V61.8752H44.0685V64.8865C44.0685 64.9552 44.0685 65.3677 44.0685 65.574H43.3397V64.9415C43.2377 65.1632 43.0687 65.3474 42.8567 65.4682C42.6446 65.5891 42.4 65.6405 42.1572 65.6152C41.9794 65.6452 41.7972 65.6342 41.6243 65.5829C41.4515 65.5316 41.2926 65.4415 41.16 65.3194C41.0273 65.1974 40.9243 65.0466 40.8588 64.8786C40.7933 64.7106 40.7671 64.5299 40.7822 64.3502V61.8752H41.5385Z" fill="#333333"/>
<path d="M45.6086 62.357C45.7232 62.142 45.9 61.9666 46.1159 61.8538C46.3318 61.7409 46.5767 61.6959 46.8186 61.7245C47.0357 61.713 47.2526 61.7489 47.4545 61.8296C47.6563 61.9103 47.8381 62.034 47.9874 62.192C48.3031 62.578 48.4604 63.0694 48.4274 63.567C48.4625 64.0522 48.3369 64.5354 48.0699 64.942C47.9102 65.1521 47.7012 65.3197 47.4614 65.43C47.2216 65.5403 46.9584 65.59 46.6949 65.5745C46.4033 65.5763 46.1172 65.4952 45.8699 65.3407C45.7245 65.2395 45.6026 65.1082 45.5124 64.9557V65.5195H44.8386V60.1982H45.5399L45.6086 62.357ZM46.6536 62.192C45.5949 62.192 45.5949 63.4295 45.5949 63.6632C45.5949 63.897 45.5949 65.0382 46.6261 65.0382C47.6574 65.0382 47.6986 64.2132 47.6986 63.6632C47.6986 63.2507 47.6161 62.192 46.6536 62.192V62.192Z" fill="#333333"/>
<path d="M1.64966 2.17285V71.0879H53.3497V2.17285H1.64966ZM51.4934 69.2453H3.50591V4.01535H51.4934V69.2453Z" fill="#333333"/>
</g>
<defs>
<clipPath id="clip0">
<rect width="55" height="73.26" fill="white"/>
</clipPath>
</defs>
</svg>
