<svg width="87" height="20" viewBox="0 0 87 20" fill="none" xmlns="http://www.w3.org/2000/svg">
<path d="M87 0H0V20H87V0Z" fill="white"/>
<path d="M8.73111 4.20427C9.32221 4.20427 9.87109 4.3109 10.3777 4.52416C10.8683 4.72676 11.3145 5.02082 11.6919 5.39018C12.0607 5.7534 12.3562 6.18233 12.5627 6.65419C12.7725 7.12649 12.8803 7.63663 12.8794 8.1522C12.8794 8.70357 12.7633 9.20812 12.531 9.66585C12.3052 10.1155 11.9902 10.5161 11.6048 10.844C11.2151 11.1743 10.7669 11.4308 10.2828 11.6008C9.78526 11.7779 9.2601 11.8677 8.73113 11.8661H4.6462V15.7985H3.3954V4.90648C3.39352 4.81312 3.41157 4.72043 3.44839 4.6344C3.48522 4.54837 3.53998 4.47094 3.60913 4.40712C3.75163 4.27188 3.9337 4.20427 4.15536 4.20427H8.73111ZM8.73111 10.6958C9.11475 10.6988 9.49573 10.6327 9.85525 10.5007C10.1869 10.3805 10.4929 10.2006 10.7577 9.97016C11.0118 9.74552 11.2165 9.47204 11.3594 9.16652C11.5084 8.84871 11.5841 8.5023 11.5811 8.1522C11.5821 7.79306 11.5094 7.43742 11.3673 7.10669C11.2279 6.77837 11.0264 6.47917 10.7735 6.22504C10.5153 5.96682 10.2088 5.76018 9.87107 5.61646C9.52273 5.46563 9.14274 5.39021 8.73108 5.39021H4.6462V10.6957L8.73111 10.6958ZM17.5659 15.7985C17.4665 15.8005 17.3677 15.7829 17.2752 15.7467C17.1828 15.7105 17.0986 15.6565 17.0276 15.5878C16.8798 15.4474 16.8059 15.2835 16.8059 15.0963V4.20427H18.0568V14.6125H26.0208V15.7985H17.5659ZM30.5807 4.20427V10.961C30.5786 11.4407 30.6841 11.9149 30.8895 12.3498C31.0939 12.7848 31.3815 13.1769 31.7366 13.5045C32.1008 13.8408 32.5248 14.1079 32.9874 14.2926C33.4698 14.4865 33.9864 14.5846 34.5074 14.5812C35.0284 14.5846 35.5449 14.4865 36.0273 14.2926C36.4882 14.1091 36.9098 13.8418 37.2703 13.5045C37.6213 13.1752 37.906 12.7834 38.1094 12.3498C38.3148 11.9149 38.4203 11.4407 38.4183 10.961V4.20427H39.6691V10.961C39.6724 11.6006 39.5375 12.2337 39.2732 12.8179C39.0154 13.392 38.6471 13.9113 38.1886 14.3472C37.7295 14.7841 37.1833 15.13 36.5499 15.3849C35.9166 15.6398 35.2357 15.7672 34.5073 15.7673C33.7895 15.7673 33.1166 15.6372 32.4886 15.3772C31.8787 15.1287 31.3205 14.7717 30.8419 14.3238C30.3757 13.8865 29.9994 13.3647 29.7336 12.7869C29.4667 12.2142 29.3289 11.5913 29.3299 10.9611V4.20442L30.5807 4.20427ZM48.2345 15.7985V5.39023H43.6112V4.20427H54.1244V5.39023H49.5011V15.7985H48.2345ZM59.6343 4.20427V10.961C59.6322 11.4407 59.7377 11.9149 59.9431 12.3498C60.1475 12.7848 60.4351 13.1769 60.7902 13.5045C61.1544 13.8408 61.5784 14.1079 62.041 14.2926C62.5234 14.4865 63.04 14.5846 63.561 14.5812C64.082 14.5846 64.5985 14.4865 65.0809 14.2926C65.5418 14.1091 65.9634 13.8418 66.3239 13.5045C66.6749 13.1752 66.9596 12.7834 67.163 12.3498C67.3684 11.9149 67.4739 11.4407 67.4719 10.961V4.20427H68.7227V10.961C68.726 11.6006 68.5911 12.2337 68.3268 12.8179C68.069 13.392 67.7007 13.9113 67.2423 14.3472C66.7831 14.7841 66.2369 15.13 65.6036 15.3849C64.9702 15.6398 64.2893 15.7672 63.5608 15.7673C62.8431 15.7673 62.1702 15.6372 61.5421 15.3772C60.9323 15.1287 60.3741 14.7717 59.8955 14.3238C59.4292 13.8865 59.0529 13.3646 58.7872 12.7869C58.5202 12.2142 58.3825 11.5913 58.3835 10.9611V4.20442L59.6343 4.20427ZM73.7573 13.7699C74.4751 14.1236 75.1796 14.3759 75.871 14.5267C76.5624 14.6776 77.3198 14.753 78.1431 14.753C78.5547 14.753 79.0192 14.7166 79.5364 14.6437C80.0327 14.5763 80.5191 14.4505 80.9851 14.2692C81.4337 14.0923 81.8137 13.8608 82.1251 13.5747C82.4365 13.2887 82.5922 12.9376 82.5922 12.5214C82.5922 12.1573 82.4998 11.8557 82.3151 11.6164C82.1259 11.3734 81.8856 11.1737 81.6105 11.0312C81.3158 10.8767 81.0017 10.7613 80.6764 10.6879C80.3386 10.6098 80.022 10.55 79.7264 10.5084C79.262 10.4355 78.787 10.3809 78.3014 10.3446C77.8159 10.3082 77.3356 10.2588 76.8606 10.1963C76.4 10.1365 75.9429 10.0532 75.4911 9.94665C75.053 9.84261 74.6625 9.68656 74.3194 9.4785C73.9815 9.27549 73.6988 8.99428 73.4961 8.65925C73.2902 8.32115 73.1873 7.89202 73.1873 7.37188C73.1873 6.71649 73.3667 6.17553 73.7256 5.74901C74.0844 5.32248 74.5357 4.98438 75.0793 4.73471C75.6381 4.48043 76.2293 4.30196 76.8367 4.20416C77.4647 4.10012 78.0479 4.0481 78.5862 4.0481C79.2409 4.04733 79.8947 4.0969 80.5416 4.19636C81.1859 4.29661 81.8193 4.45593 82.4336 4.67224C82.518 4.71386 82.6051 4.75287 82.6948 4.78928C82.7845 4.8257 82.8769 4.85951 82.9719 4.89072C82.9881 4.88984 83.0044 4.8925 83.0194 4.89852C83.0345 4.90454 83.0507 4.90721 83.0669 4.90633L83.2569 4.96875L82.8136 6.1235L82.6077 6.01417C82.3209 5.85893 82.0184 5.73342 81.7053 5.63966C81.3602 5.5339 81.0085 5.4505 80.6524 5.38999C80.2882 5.32757 79.9267 5.28335 79.5678 5.25734C79.2089 5.23133 78.8817 5.21833 78.5862 5.21833C78.1386 5.2208 77.6917 5.25207 77.2483 5.31196C76.7891 5.36893 76.3394 5.48433 75.9104 5.65526C75.4987 5.82171 75.1557 6.04277 74.8813 6.31846C74.6068 6.59414 74.4697 6.9453 74.4697 7.37192C74.4697 7.71523 74.5568 7.99091 74.731 8.19897C74.9051 8.40703 75.1506 8.57349 75.4672 8.69833C75.7839 8.82316 76.1612 8.91419 76.5993 8.97141C77.0373 9.02863 77.515 9.08325 78.0322 9.13526C78.2855 9.15607 78.5415 9.17688 78.8001 9.19769C79.0587 9.21849 79.3147 9.2445 79.568 9.27571C80.0819 9.33943 80.592 9.43059 81.0959 9.54879C81.6078 9.66842 82.0696 9.84787 82.4814 10.0871C82.8853 10.3191 83.2273 10.6428 83.4788 11.0312C83.7322 11.4214 83.8588 11.9181 83.8588 12.5215C83.8588 12.9688 83.7665 13.3641 83.5818 13.7074C83.3984 14.049 83.1513 14.3534 82.8534 14.6047C82.5402 14.8671 82.1877 15.0803 81.8085 15.2367C81.4109 15.4037 81.0006 15.5394 80.5813 15.6424C80.1647 15.7455 79.7415 15.8211 79.3147 15.8687C78.9258 15.9136 78.5346 15.937 78.1431 15.9389C77.7042 15.9402 77.2656 15.9193 76.8289 15.8765C76.4241 15.836 76.0223 15.7709 75.6256 15.6814C75.2346 15.5929 74.8487 15.4835 74.4697 15.3538C74.0898 15.2237 73.6939 15.0703 73.2822 14.8934L72.9814 14.7686L73.5672 13.6919L73.7573 13.7699Z" fill="black"/>
</svg>
