<svg width="20" height="20" viewBox="0 0 20 20" fill="none" xmlns="http://www.w3.org/2000/svg">
<g clip-path="url(#clip0)">
<path d="M0.726799 0.960872L4.7893 0.0233716C5.2307 -0.0781909 5.68383 0.152278 5.86352 0.56634L7.73852 4.94134C7.90258 5.32415 7.7932 5.77337 7.46899 6.03509L5.1018 7.97259C6.50805 10.9687 8.96508 13.4609 12.0237 14.8945L13.9612 12.5273C14.2268 12.2031 14.6721 12.0937 15.0549 12.2577L19.4299 14.1327C19.8479 14.3163 20.0784 14.7695 19.9768 15.2109L19.0393 19.2734C18.9416 19.6952 18.5666 19.9999 18.1252 19.9999C8.12133 19.9999 0.000234604 11.8945 0.000234604 1.87493C0.000234604 1.43743 0.301018 1.05853 0.726799 0.960872Z" fill="#E13632"/>
</g>
<defs>
<clipPath id="clip0">
<rect width="20" height="20" fill="white" transform="matrix(-1 0 0 1 20 0)"/>
</clipPath>
</defs>
</svg>
